<svg width="660" height="635" viewBox="0 0 660 635" fill="none" xmlns="http://www.w3.org/2000/svg">
<path fill-rule="evenodd" clip-rule="evenodd" d="M639.662 0.607067C639.701 0.607217 639.736 0.638201 639.75 0.682179L639.758 0.729619V19.403H659.296L659.333 19.4129C659.367 19.4316 659.392 19.4751 659.392 19.5256C659.392 19.5762 659.367 19.6195 659.333 19.6383L659.296 19.6481H639.758V69.0881H659.296L659.333 69.098C659.367 69.1167 659.392 69.1601 659.392 69.2107C659.392 69.2608 659.367 69.3047 659.333 69.3233L659.296 69.3332H639.758V118.771H659.296L659.333 118.781C659.367 118.8 659.392 118.843 659.392 118.894C659.392 118.944 659.367 118.988 659.333 119.006L659.296 119.016H639.758V168.454H659.296L659.333 168.464C659.367 168.483 659.392 168.526 659.392 168.577C659.392 168.627 659.367 168.671 659.333 168.69L659.296 168.699H639.758V218.139H659.296L659.333 218.149C659.367 218.168 659.392 218.211 659.392 218.262C659.392 218.312 659.367 218.356 659.333 218.375L659.296 218.385H639.758V267.823H659.296L659.333 267.832C659.367 267.851 659.392 267.895 659.392 267.945C659.392 267.996 659.367 268.039 659.333 268.058L659.296 268.068H639.758V317.506H659.296L659.333 317.516C659.367 317.534 659.392 317.578 659.392 317.628C659.392 317.679 659.367 317.722 659.333 317.741L659.296 317.751H639.758V367.191H659.296L659.333 367.201C659.367 367.219 659.392 367.263 659.392 367.313C659.392 367.364 659.367 367.407 659.333 367.426L659.296 367.436H639.758V416.874H659.153L659.19 416.884C659.224 416.902 659.249 416.946 659.249 416.996C659.249 417.047 659.224 417.09 659.19 417.109L659.153 417.119H640.441L659.176 423.138L659.212 423.16C659.241 423.188 659.255 423.237 659.246 423.286C659.236 423.335 659.205 423.369 659.168 423.377L659.129 423.375L639.644 417.119H588.675L609.052 424.974H659.153L659.19 424.984C659.224 425.003 659.249 425.046 659.249 425.097C659.249 425.147 659.224 425.191 659.19 425.209L659.153 425.219H609.689L633.788 434.51H659.153L659.19 434.519C659.224 434.538 659.249 434.582 659.249 434.632C659.249 434.682 659.224 434.726 659.19 434.745L659.153 434.755H634.424L659.181 444.298C659.232 444.318 659.26 444.385 659.244 444.45C659.229 444.515 659.175 444.553 659.125 444.533L633.757 434.755H573.506L596.632 445.899H659.153L659.19 445.909C659.224 445.927 659.249 445.971 659.249 446.022C659.249 446.072 659.224 446.115 659.19 446.134L659.153 446.144H597.141L625.364 459.745H659.153L659.19 459.755C659.224 459.774 659.249 459.817 659.249 459.868C659.249 459.919 659.224 459.962 659.19 459.981L659.153 459.99H625.873L659.187 476.045L659.219 476.071C659.246 476.103 659.257 476.156 659.243 476.203C659.229 476.251 659.193 476.28 659.156 476.282L659.118 476.274L625.328 459.99H551.864L578.233 476.936H659.153L659.19 476.946C659.224 476.965 659.249 477.008 659.249 477.059C659.249 477.109 659.224 477.153 659.19 477.172L659.153 477.181H578.614L612.322 498.844H659.153L659.19 498.853C659.224 498.872 659.249 498.916 659.249 498.966C659.249 499.017 659.224 499.06 659.19 499.079L659.153 499.089H612.703L657.261 527.724H659.153L659.19 527.734C659.224 527.753 659.249 527.797 659.249 527.847C659.249 527.897 659.224 527.941 659.19 527.96L659.153 527.969H657.642L659.196 528.968C659.243 528.998 659.262 529.072 659.238 529.132C659.214 529.192 659.156 529.217 659.109 529.187L657.214 527.969H548.797L589.992 567.542H659.153L659.19 567.552C659.224 567.571 659.249 567.614 659.249 567.665C659.249 567.715 659.224 567.758 659.19 567.777L659.153 567.787H590.247L650.797 625.952H659.153L659.19 625.962C659.224 625.981 659.249 626.024 659.249 626.075C659.249 626.125 659.224 626.168 659.19 626.187L659.153 626.197H651.052L659.355 634.173C659.396 634.214 659.405 634.289 659.373 634.343C659.341 634.397 659.281 634.407 659.238 634.367L650.733 626.197H489.979L494.127 634.203L494.141 634.248C494.148 634.295 494.132 634.345 494.099 634.373C494.066 634.4 494.024 634.398 493.993 634.373L493.965 634.337L489.749 626.197H329.749L329.741 634.27C329.741 634.337 329.696 634.392 329.643 634.392C329.59 634.391 329.546 634.337 329.546 634.27L329.554 626.197H169.557L165.325 634.337C165.296 634.393 165.236 634.409 165.191 634.373C165.147 634.335 165.135 634.259 165.163 634.203L169.326 626.197H9.38806L0.901687 634.367C0.859231 634.407 0.799998 634.397 0.767921 634.343C0.736123 634.289 0.744474 634.214 0.786586 634.173L9.07231 626.197H0.704149C0.650854 626.197 0.607713 626.142 0.607713 626.075C0.607848 626.007 0.650938 625.952 0.704149 625.952H9.3274L69.7524 567.787H0.704149C0.650854 567.787 0.607713 567.732 0.607713 567.665C0.607848 567.597 0.650938 567.542 0.704149 567.542H70.0075L111.117 527.969H2.26579L0.747701 528.944C0.700196 528.974 0.642623 528.949 0.618601 528.889C0.594624 528.828 0.613124 528.755 0.660597 528.725L1.8365 527.969H0.704149C0.650854 527.969 0.607713 527.915 0.607713 527.847C0.608057 527.78 0.651068 527.724 0.704149 527.724H2.21913L46.8286 499.089H0.704149C0.650854 499.089 0.607713 499.034 0.607713 498.966C0.608057 498.899 0.651068 498.844 0.704149 498.844H47.2097L80.9561 477.181H0.704149C0.651114 477.181 0.60813 477.126 0.607713 477.059C0.607848 476.991 0.650938 476.936 0.704149 476.936H81.3371L107.736 459.99H34.2763L0.739924 476.138C0.690318 476.162 0.634587 476.129 0.61549 476.067C0.596628 476.003 0.621757 475.933 0.671485 475.908L33.7304 459.99H0.704149C0.650854 459.99 0.607713 459.936 0.607713 459.868C0.607848 459.8 0.650938 459.745 0.704149 459.745H34.239L62.487 446.144H0.704149C0.650854 446.144 0.607713 446.089 0.607713 446.022C0.608057 445.954 0.651068 445.899 0.704149 445.899H62.9956L86.1403 434.755H25.8926L0.733702 444.446C0.682792 444.466 0.629506 444.43 0.613935 444.365C0.598489 444.3 0.626794 444.233 0.677707 444.213L25.23 434.755H0.704149C0.651114 434.755 0.60813 434.699 0.607713 434.632C0.607848 434.564 0.650938 434.51 0.704149 434.51H25.8662L49.9814 425.219H0.704149C0.650984 425.219 0.607922 425.164 0.607713 425.097C0.607848 425.029 0.650938 424.974 0.704149 424.974H50.6176L71.0076 417.119H20.0365L0.72748 423.316C0.67594 423.332 0.623842 423.292 0.610824 423.227C0.598238 423.161 0.629533 423.095 0.680818 423.079L19.2401 417.119H0.704149C0.650854 417.119 0.607713 417.064 0.607713 416.996C0.608057 416.929 0.651068 416.874 0.704149 416.874H19.9229V367.436H0.844137C0.791239 367.435 0.747908 367.381 0.747701 367.313C0.747836 367.246 0.791196 367.191 0.844137 367.191H19.9229V317.751H0.844137C0.791112 317.75 0.747701 317.696 0.747701 317.628C0.748041 317.561 0.791322 317.506 0.844137 317.506H19.9229V268.068H0.844137C0.791111 268.067 0.747701 268.013 0.747701 267.945C0.747836 267.878 0.791194 267.823 0.844137 267.823H19.9229V218.385H0.844137C0.791366 218.384 0.748114 218.329 0.747701 218.262C0.747836 218.195 0.791197 218.14 0.844137 218.139H19.9229V168.699H0.844137C0.791111 168.699 0.747701 168.644 0.747701 168.577C0.747836 168.51 0.791194 168.455 0.844137 168.454H19.9229V119.016H0.844137C0.791366 119.016 0.748114 118.961 0.747701 118.894C0.747836 118.826 0.791197 118.772 0.844137 118.771H19.9229V69.3332H0.844137C0.791366 69.3328 0.748114 69.2777 0.747701 69.2107C0.747836 69.1433 0.791197 69.0885 0.844137 69.0881H19.9229V19.6481H0.844137C0.791111 19.6477 0.747701 19.5931 0.747701 19.5256C0.747836 19.4583 0.791194 19.4034 0.844137 19.403H19.9229V0.729619C19.9229 0.662012 19.9662 0.607262 20.0194 0.607067C20.0724 0.607388 20.1158 0.662091 20.1158 0.729619V19.403H71.5613V0.729619C71.5613 0.661891 71.6045 0.607067 71.6578 0.607067C71.7105 0.607842 71.7542 0.662374 71.7542 0.729619V19.403H123.198V0.729619C123.198 0.661891 123.241 0.607067 123.295 0.607067C123.347 0.6079 123.391 0.662411 123.391 0.729619V19.403H174.83V0.729619C174.83 0.662115 174.874 0.607428 174.927 0.607067C174.98 0.607216 175.023 0.661984 175.023 0.729619V19.403H226.467V0.729619C226.467 0.662087 226.511 0.607382 226.564 0.607067C226.617 0.607196 226.66 0.661971 226.66 0.729619V19.403H278.106V0.729619C278.106 0.661999 278.149 0.607241 278.202 0.607067C278.255 0.607555 278.298 0.662194 278.298 0.729619V19.403H329.742V0.729619C329.742 0.66218 329.786 0.607531 329.839 0.607067C329.892 0.607197 329.935 0.661972 329.935 0.729619V19.403H381.379V0.729619C381.379 0.662056 381.423 0.607332 381.476 0.607067C381.516 0.607067 381.55 0.638188 381.564 0.682179L381.572 0.729619V19.403H433.018V0.729619C433.018 0.661891 433.061 0.607067 433.114 0.607067C433.154 0.607366 433.188 0.638308 433.203 0.682179L433.211 0.729619V19.403H484.653V0.729619C484.653 0.662056 484.696 0.607332 484.749 0.607067C484.789 0.607067 484.823 0.638188 484.838 0.682179L484.846 0.729619V19.403H536.291V0.729619C536.291 0.661891 536.335 0.607067 536.388 0.607067C536.428 0.607317 536.462 0.638273 536.477 0.682179L536.484 0.729619V19.403H587.928V0.729619C587.928 0.661974 587.971 0.6072 588.025 0.607067C588.065 0.607067 588.099 0.638141 588.113 0.682179L588.121 0.729619V19.403H639.565V0.729619C639.565 0.661891 639.608 0.607067 639.662 0.607067ZM9.64315 625.952H169.453L199.692 567.787H70.0697L9.64315 625.952ZM169.685 625.952H329.554L329.607 567.787H199.924L169.685 625.952ZM329.749 625.952H489.621L459.485 567.787H329.8L329.749 625.952ZM489.853 625.952H650.478L589.929 567.787H459.717L489.853 625.952ZM70.3248 567.542H199.82L220.393 527.969H111.436L70.3248 567.542ZM200.052 567.542H329.607L329.643 527.969H220.625L200.052 567.542ZM329.8 567.542H459.359L438.855 527.969H329.836L329.8 567.542ZM459.591 567.542H589.673L548.478 527.969H439.087L459.591 567.542ZM47.2563 499.089L2.64687 527.724H111.372L141.12 499.089H47.2563ZM141.44 499.089L111.691 527.724H220.521L235.408 499.089H141.44ZM235.64 499.089L220.753 527.724H329.643L329.668 499.089H235.64ZM329.861 499.089L329.836 527.724H438.729L423.892 499.089H329.861ZM424.124 499.089L438.961 527.724H548.223L518.413 499.089H424.124ZM518.732 499.089L548.542 527.724H656.833L612.274 499.089H518.732ZM47.6374 498.844H141.375L163.879 477.181H81.3838L47.6374 498.844ZM141.695 498.844H235.535L246.797 477.181H164.199L141.695 498.844ZM235.767 498.844H329.669L329.688 477.181H247.028L235.767 498.844ZM329.862 498.844H423.766L412.542 477.181H329.881L329.862 498.844ZM423.998 498.844H518.158L495.608 477.181H412.774L423.998 498.844ZM518.477 498.844H611.893L578.185 477.181H495.927L518.477 498.844ZM81.7664 476.936H164.134L181.738 459.99H108.165L81.7664 476.936ZM164.454 476.936H246.924L255.734 459.99H182.058L164.454 476.936ZM247.156 476.936H329.688L329.704 459.99H255.966L247.156 476.936ZM329.881 476.936H412.415L403.634 459.99H329.896L329.881 476.936ZM412.646 476.936H495.353L477.711 459.99H403.866L412.646 476.936ZM495.672 476.936H577.804L551.435 459.99H478.032L495.672 476.936ZM34.785 459.745H108.118L129.306 446.144H63.0345L34.785 459.745ZM108.548 459.745H181.993L196.123 446.144H129.736L108.548 459.745ZM182.313 459.745H255.862L262.932 446.144H196.443L182.313 459.745ZM256.093 459.745H329.704L329.716 446.144H263.164L256.093 459.745ZM329.896 459.745H403.508L396.461 446.144H329.909L329.896 459.745ZM403.74 459.745H477.456L463.297 446.144H396.692L403.74 459.745ZM477.777 459.745H551.054L529.889 446.144H463.618L477.777 459.745ZM551.483 459.745H624.82L596.597 446.144H530.319L551.483 459.745ZM63.5431 445.899H129.687L147.049 434.755H86.6893L63.5431 445.899ZM130.117 445.899H196.378L207.955 434.755H147.478L130.117 445.899ZM196.698 445.899H263.06L268.854 434.755H208.275L196.698 445.899ZM263.292 445.899H329.718L329.727 434.755H269.086L263.292 445.899ZM329.91 445.899H396.333L390.559 434.755H329.92L329.91 445.899ZM396.565 445.899H463.042L451.44 434.755H390.791L396.565 445.899ZM463.362 445.899H529.508L512.167 434.755H451.761L463.362 445.899ZM529.938 445.899H596.088L572.962 434.755H512.596L529.938 445.899ZM26.5288 434.51H86.6505L105.944 425.219H50.6471L26.5288 434.51ZM87.198 434.51H147.43L161.903 425.219H106.493L87.198 434.51ZM147.859 434.51H208.21L217.861 425.219H162.333L147.859 434.51ZM208.53 434.51H268.982L273.811 425.219H218.181L208.53 434.51ZM269.213 434.51H329.727L329.735 425.219H274.043L269.213 434.51ZM329.92 434.51H390.433L385.619 425.219H329.928L329.92 434.51ZM390.665 434.51H451.185L441.513 425.219H385.851L390.665 434.51ZM451.505 434.51H511.786L497.33 425.219H441.834L451.505 434.51ZM512.215 434.51H572.453L553.176 425.219H497.759L512.215 434.51ZM572.998 434.51H633.121L609.021 425.219H553.72L572.998 434.51ZM51.2833 424.974H106.454L122.767 417.119H71.6749L51.2833 424.974ZM107.002 424.974H162.286L174.522 417.119H123.316L107.002 424.974ZM162.715 424.974H218.116L226.276 417.119H174.952L162.715 424.974ZM218.435 424.974H273.937L278.022 417.119H226.596L218.435 424.974ZM274.169 424.974H329.735L329.742 417.119H278.253L274.169 424.974ZM329.928 424.974H385.493L381.423 417.119H329.935L329.928 424.974ZM385.725 424.974H441.258L433.081 417.119H381.655L385.725 424.974ZM441.579 424.974H496.947L484.725 417.119H433.402L441.579 424.974ZM497.376 424.974H552.667L536.366 417.119H485.154L497.376 424.974ZM553.211 424.974H608.385L588.008 417.119H536.91L553.211 424.974ZM20.1158 416.874H71.5613V367.436H20.1158V416.874ZM71.7542 416.874H123.198V367.436H71.7542V416.874ZM123.391 416.874H174.83V367.436H123.391V416.874ZM175.023 416.874H226.467V367.436H175.023V416.874ZM226.66 416.874H278.106V367.436H226.66V416.874ZM278.298 416.874H329.742V367.436H278.298V416.874ZM329.935 416.874H381.379V367.436H329.935V416.874ZM381.572 416.874H433.018V367.436H381.572V416.874ZM433.211 416.874H484.653V367.436H433.211V416.874ZM484.846 416.874H536.291V367.436H484.846V416.874ZM536.484 416.874H587.928V367.436H536.484V416.874ZM588.121 416.874H639.565V367.436H588.121V416.874ZM20.1158 367.191H71.5613V317.751H20.1158V367.191ZM71.7542 367.191H123.198V317.751H71.7542V367.191ZM123.391 367.191H174.83V317.751H123.391V367.191ZM175.023 367.191H226.467V317.751H175.023V367.191ZM226.66 367.191H278.106V317.751H226.66V367.191ZM278.298 367.191H329.742V317.751H278.298V367.191ZM329.935 367.191H381.379V317.751H329.935V367.191ZM381.572 367.191H433.018V317.751H381.572V367.191ZM433.211 367.191H484.653V317.751H433.211V367.191ZM484.846 367.191H536.291V317.751H484.846V367.191ZM536.484 367.191H587.928V317.751H536.484V367.191ZM588.121 367.191H639.565V317.751H588.121V367.191ZM20.1158 317.506H71.5613V268.068H20.1158V317.506ZM71.7542 317.506H123.198V268.068H71.7542V317.506ZM123.391 317.506H174.83V268.068H123.391V317.506ZM175.023 317.506H226.467V268.068H175.023V317.506ZM226.66 317.506H278.106V268.068H226.66V317.506ZM278.298 317.506H329.742V268.068H278.298V317.506ZM329.935 317.506H381.379V268.068H329.935V317.506ZM381.572 317.506H433.018V268.068H381.572V317.506ZM433.211 317.506H484.653V268.068H433.211V317.506ZM484.846 317.506H536.291V268.068H484.846V317.506ZM536.484 317.506H587.928V268.068H536.484V317.506ZM588.121 317.506H639.565V268.068H588.121V317.506ZM20.1158 267.823H71.5613V218.385H20.1158V267.823ZM71.7542 267.823H123.198V218.385H71.7542V267.823ZM123.391 267.823H174.83V218.385H123.391V267.823ZM175.023 267.823H226.467V218.385H175.023V267.823ZM226.66 267.823H278.106V218.385H226.66V267.823ZM278.298 267.823H329.742V218.385H278.298V267.823ZM329.935 267.823H381.379V218.385H329.935V267.823ZM381.572 267.823H433.018V218.385H381.572V267.823ZM433.211 267.823H484.653V218.385H433.211V267.823ZM484.846 267.823H536.291V218.385H484.846V267.823ZM536.484 267.823H587.928V218.385H536.484V267.823ZM588.121 267.823H639.565V218.385H588.121V267.823ZM20.1158 218.139H71.5613V168.699H20.1158V218.139ZM71.7542 218.139H123.198V168.699H71.7542V218.139ZM123.391 218.139H174.83V168.699H123.391V218.139ZM175.023 218.139H226.467V168.699H175.023V218.139ZM226.66 218.139H278.106V168.699H226.66V218.139ZM278.298 218.139H329.742V168.699H278.298V218.139ZM329.935 218.139H381.379V168.699H329.935V218.139ZM381.572 218.139H433.018V168.699H381.572V218.139ZM433.211 218.139H484.653V168.699H433.211V218.139ZM484.846 218.139H536.291V168.699H484.846V218.139ZM536.484 218.139H587.928V168.699H536.484V218.139ZM588.121 218.139H639.565V168.699H588.121V218.139ZM20.1158 168.454H71.5613V119.016H20.1158V168.454ZM71.7542 168.454H123.198V119.016H71.7542V168.454ZM123.391 168.454H174.83V119.016H123.391V168.454ZM175.023 168.454H226.467V119.016H175.023V168.454ZM226.66 168.454H278.106V119.016H226.66V168.454ZM278.298 168.454H329.742V119.016H278.298V168.454ZM329.935 168.454H381.379V119.016H329.935V168.454ZM381.572 168.454H433.018V119.016H381.572V168.454ZM433.211 168.454H484.653V119.016H433.211V168.454ZM484.846 168.454H536.291V119.016H484.846V168.454ZM536.484 168.454H587.928V119.016H536.484V168.454ZM588.121 168.454H639.565V119.016H588.121V168.454ZM20.1158 118.771H71.5613V69.3332H20.1158V118.771ZM71.7542 118.771H123.198V69.3332H71.7542V118.771ZM123.391 118.771H174.83V69.3332H123.391V118.771ZM175.023 118.771H226.467V69.3332H175.023V118.771ZM226.66 118.771H278.106V69.3332H226.66V118.771ZM278.298 118.771H329.742V69.3332H278.298V118.771ZM329.935 118.771H381.379V69.3332H329.935V118.771ZM381.572 118.771H433.018V69.3332H381.572V118.771ZM433.211 118.771H484.653V69.3332H433.211V118.771ZM484.846 118.771H536.291V69.3332H484.846V118.771ZM536.484 118.771H587.928V69.3332H536.484V118.771ZM588.121 118.771H639.565V69.3332H588.121V118.771ZM20.1158 69.0881H71.5613V19.6481H20.1158V69.0881ZM71.7542 69.0881H123.198V19.6481H71.7542V69.0881ZM123.391 69.0881H174.83V19.6481H123.391V69.0881ZM175.023 69.0881H226.467V19.6481H175.023V69.0881ZM226.66 69.0881H278.106V19.6481H226.66V69.0881ZM278.298 69.0881H329.742V19.6481H278.298V69.0881ZM329.935 69.0881H381.379V19.6481H329.935V69.0881ZM381.572 69.0881H433.018V19.6481H381.572V69.0881ZM433.211 69.0881H484.653V19.6481H433.211V69.0881ZM484.846 69.0881H536.291V19.6481H484.846V69.0881ZM536.484 69.0881H587.928V19.6481H536.484V69.0881ZM588.121 69.0881H639.565V19.6481H588.121V69.0881Z" fill="url(#paint0_radial_722_4422)" fill-opacity="0.5"/>
<path d="M490.222 625.344H648.968L589.683 568.394H460.716L490.222 625.344ZM330.356 625.344H488.621L459.114 568.394H330.408L330.356 625.344ZM170.686 625.344H328.947L328.998 568.394H200.294L170.686 625.344ZM11.1526 625.344H169.085L198.69 568.394H70.3146L11.1526 625.344ZM459.96 566.935H588.165L548.232 528.577H440.087L459.96 566.935ZM330.408 566.935H458.36L438.486 528.577H330.443L330.408 566.935ZM201.052 566.935H328.998L329.034 528.577H220.994L201.052 566.935ZM71.8309 566.935H199.451L219.392 528.577H111.683L71.8309 566.935ZM548.789 527.118H654.766L612.096 499.697H520.242L548.789 527.118ZM439.331 527.118H546.714L518.167 499.697H425.124L439.331 527.118ZM330.443 527.118H437.73L423.522 499.697H330.469L330.443 527.118ZM221.754 527.118H329.034L329.06 499.697H236.008L221.754 527.118ZM113.197 527.118H220.15L234.407 499.697H141.686L113.197 527.118ZM4.71522 527.118H111.126L139.612 499.697H47.4353L4.71522 527.118ZM518.722 498.236H609.821L578.006 477.789H497.438L518.722 498.236ZM424.368 498.236H516.649L495.363 477.789H413.773L424.368 498.236ZM330.471 498.236H422.766L412.172 477.789H330.489L330.471 498.236ZM236.769 498.236H329.062L329.08 477.789H247.399L236.769 498.236ZM143.204 498.236H235.165L245.795 477.789H164.445L143.204 498.236ZM49.7097 498.236H141.13L162.37 477.789H81.5622L49.7097 498.236ZM578.414 476.33H657.832L625.186 460.597H553.931L578.414 476.33ZM495.92 476.33H575.738L551.257 460.597H479.539L495.92 476.33ZM413.017 476.33H493.845L477.464 460.597H404.865L413.017 476.33ZM330.489 476.33H411.416L403.264 460.597H330.505L330.489 476.33ZM248.157 476.33H329.08L329.095 460.597H256.336L248.157 476.33ZM165.961 476.33H246.555L254.733 460.597H182.304L165.961 476.33ZM83.8347 476.33H163.889L180.231 460.597H108.345L83.8347 476.33ZM1.74198 476.33H81.1564L105.667 460.597H34.4179L1.74198 476.33ZM551.661 459.138H622.159L596.459 446.752H532.39L551.661 459.138ZM478.023 459.138H548.987L529.71 446.752H465.128L478.023 459.138ZM404.109 459.138H475.946L463.052 446.752H397.692L404.109 459.138ZM330.505 459.138H402.51L396.09 446.752H330.517L330.505 459.138ZM257.094 459.138H329.095L329.107 446.752H263.534L257.094 459.138ZM183.82 459.138H255.493L261.932 446.752H196.689L183.82 459.138ZM110.62 459.138H181.748L194.617 446.752H129.914L110.62 459.138ZM37.4486 459.138H107.939L127.234 446.752H63.1764L37.4486 459.138ZM530.118 445.292H593.427L572.82 435.362H514.664L530.118 445.292ZM463.61 445.292H527.441L511.989 435.362H453.269L463.61 445.292ZM396.936 445.292H461.533L451.194 435.362H391.791L396.936 445.292ZM330.519 445.292H395.334L390.189 435.362H330.529L330.519 445.292ZM264.292 445.292H329.109L329.119 435.362H269.454L264.292 445.292ZM198.205 445.292H262.69L267.853 435.362H208.521L198.205 445.292ZM132.184 445.292H196.131L206.448 435.362H147.656L132.184 445.292ZM66.2071 445.292H129.506L144.98 435.362H86.8297L66.2071 445.292ZM573.139 433.902H629.856L608.909 425.827H556.382L573.139 433.902ZM512.393 433.902H569.791L553.035 425.827H499.825L512.393 433.902ZM451.75 433.902H509.719L497.151 425.827H443.343L451.75 433.902ZM391.035 433.902H449.676L441.269 425.827H386.85L391.035 433.902ZM330.529 433.902H389.433L385.25 425.827H330.536L330.529 433.902ZM270.215 433.902H329.119L329.127 425.827H274.413L270.215 433.902ZM210.037 433.902H268.611L272.81 425.827H218.426L210.037 433.902ZM149.933 433.902H207.965L216.354 425.827H162.511L149.933 433.902ZM89.8604 433.902H147.253L159.83 425.827H106.635L89.8604 433.902ZM29.7977 433.902H86.509L103.282 425.827H50.7628L29.7977 433.902ZM553.353 424.367H605.12L587.896 417.727H539.572L553.353 424.367ZM497.555 424.367H550.008L536.228 417.727H487.225L497.555 424.367ZM441.823 424.367H494.88L484.545 417.727H434.913L441.823 424.367ZM386.096 424.367H439.751L432.836 417.727H382.653L386.096 424.367ZM330.536 424.367H384.494L381.054 417.727H330.544L330.536 424.367ZM275.169 424.367H329.127L329.135 417.727H278.624L275.169 424.367ZM219.943 424.367H273.568L277.02 417.727H226.841L219.943 424.367ZM164.783 424.367H217.87L224.767 417.727H175.13L164.783 424.367ZM109.663 424.367H162.105L172.45 417.727H123.453L109.663 424.367ZM54.5497 424.367H106.312L120.103 417.727H71.7873L54.5497 424.367ZM588.729 416.266H638.958V368.043H588.729V416.266ZM537.092 416.266H587.32V368.043H537.092V416.266ZM485.454 416.266H535.684V368.043H485.454V416.266ZM433.818 416.266H484.044V368.043H433.818V416.266ZM382.18 416.266H432.411V368.043H382.18V416.266ZM330.544 416.266H380.771V368.043H330.544V416.266ZM278.907 416.266H329.135V368.043H278.907V416.266ZM227.269 416.266H277.497V368.043H227.269V416.266ZM175.631 416.266H225.859V368.043H175.631V416.266ZM123.999 416.266H174.222V368.043H123.999V416.266ZM72.3614 416.266H122.59V368.043H72.3614V416.266ZM20.7236 416.266H70.954V368.043H20.7236V416.266ZM588.729 366.583H638.958V318.358H588.729V366.583ZM537.092 366.583H587.32V318.358H537.092V366.583ZM485.454 366.583H535.684V318.358H485.454V366.583ZM433.818 366.583H484.044V318.358H433.818V366.583ZM382.18 366.583H432.411V318.358H382.18V366.583ZM330.544 366.583H380.771V318.358H330.544V366.583ZM278.907 366.583H329.135V318.358H278.907V366.583ZM227.269 366.583H277.497V318.358H227.269V366.583ZM175.631 366.583H225.859V318.358H175.631V366.583ZM123.999 366.583H174.222V318.358H123.999V366.583ZM72.3614 366.583H122.59V318.358H72.3614V366.583ZM20.7236 366.583H70.954V318.358H20.7236V366.583ZM588.729 316.899H638.958V268.675H588.729V316.899ZM537.092 316.899H587.32V268.675H537.092V316.899ZM485.454 316.899H535.684V268.675H485.454V316.899ZM433.818 316.899H484.044V268.675H433.818V316.899ZM382.18 316.899H432.411V268.675H382.18V316.899ZM330.544 316.899H380.771V268.675H330.544V316.899ZM278.907 316.899H329.135V268.675H278.907V316.899ZM227.269 316.899H277.497V268.675H227.269V316.899ZM175.631 316.899H225.859V268.675H175.631V316.899ZM123.999 316.899H174.222V268.675H123.999V316.899ZM72.3614 316.899H122.59V268.675H72.3614V316.899ZM20.7236 316.899H70.954V268.675H20.7236V316.899ZM588.729 267.214H638.958V218.993H588.729V267.214ZM537.092 267.214H587.32V218.993H537.092V267.214ZM485.454 267.214H535.684V218.993H485.454V267.214ZM433.818 267.214H484.044V218.993H433.818V267.214ZM382.18 267.214H432.411V218.993H382.18V267.214ZM330.544 267.214H380.771V218.993H330.544V267.214ZM278.907 267.214H329.135V218.993H278.907V267.214ZM227.269 267.214H277.497V218.993H227.269V267.214ZM175.631 267.214H225.859V218.993H175.631V267.214ZM123.999 267.214H174.222V218.993H123.999V267.214ZM72.3614 267.214H122.59V218.993H72.3614V267.214ZM20.7236 267.214H70.954V218.993H20.7236V267.214ZM588.729 217.532H638.958V169.306H588.729V217.532ZM537.092 217.532H587.32V169.306H537.092V217.532ZM485.454 217.532H535.684V169.306H485.454V217.532ZM433.818 217.532H484.044V169.306H433.818V217.532ZM382.18 217.532H432.411V169.306H382.18V217.532ZM330.544 217.532H380.771V169.306H330.544V217.532ZM278.907 217.532H329.135V169.306H278.907V217.532ZM227.269 217.532H277.497V169.306H227.269V217.532ZM175.631 217.532H225.859V169.306H175.631V217.532ZM123.999 217.532H174.222V169.306H123.999V217.532ZM72.3614 217.532H122.59V169.306H72.3614V217.532ZM20.7236 217.532H70.954V169.306H20.7236V217.532ZM588.729 167.847H638.958V119.624H588.729V167.847ZM537.092 167.847H587.32V119.624H537.092V167.847ZM485.454 167.847H535.684V119.624H485.454V167.847ZM433.818 167.847H484.044V119.624H433.818V167.847ZM382.18 167.847H432.411V119.624H382.18V167.847ZM330.544 167.847H380.771V119.624H330.544V167.847ZM278.907 167.847H329.135V119.624H278.907V167.847ZM227.269 167.847H277.497V119.624H227.269V167.847ZM175.631 167.847H225.859V119.624H175.631V167.847ZM123.999 167.847H174.222V119.624H123.999V167.847ZM72.3614 167.847H122.59V119.624H72.3614V167.847ZM20.7236 167.847H70.954V119.624H20.7236V167.847ZM588.729 118.164H638.958V69.9412H588.729V118.164ZM537.092 118.164H587.32V69.9412H537.092V118.164ZM485.454 118.164H535.684V69.9412H485.454V118.164ZM433.818 118.164H484.044V69.9412H433.818V118.164ZM382.18 118.164H432.411V69.9412H382.18V118.164ZM330.544 118.164H380.771V69.9412H330.544V118.164ZM278.907 118.164H329.135V69.9412H278.907V118.164ZM227.269 118.164H277.497V69.9412H227.269V118.164ZM175.631 118.164H225.859V69.9412H175.631V118.164ZM123.999 118.164H174.222V69.9412H123.999V118.164ZM72.3614 118.164H122.59V69.9412H72.3614V118.164ZM20.7236 118.164H70.954V69.9412H20.7236V118.164ZM588.729 68.4799H638.958V20.2547H588.729V68.4799ZM537.092 68.4799H587.32V20.2547H537.092V68.4799ZM485.454 68.4799H535.684V20.2547H485.454V68.4799ZM433.818 68.4799H484.044V20.2547H433.818V68.4799ZM382.18 68.4799H432.411V20.2547H382.18V68.4799ZM330.544 68.4799H380.771V20.2547H330.544V68.4799ZM278.907 68.4799H329.135V20.2547H278.907V68.4799ZM227.269 68.4799H277.497V20.2547H227.269V68.4799ZM175.631 68.4799H225.859V20.2547H175.631V68.4799ZM123.999 68.4799H174.222V20.2547H123.999V68.4799ZM72.3614 68.4799H122.59V20.2547H72.3614V68.4799ZM20.7236 68.4799H70.954V20.2547H20.7236V68.4799ZM330.544 18.7953H380.771V0.729666C380.771 0.467517 380.961 0.00256431 381.473 0L381.612 0.0118645C381.826 0.053205 381.975 0.189424 382.063 0.328251L382.141 0.490399L382.164 0.583338L382.172 0.630796L382.18 0.729666V18.7953H432.411V0.729666C432.411 0.470957 432.597 0.000545685 433.113 0H433.119L433.254 0.0138419C433.464 0.0558094 433.612 0.187604 433.701 0.326274L433.78 0.490399L433.802 0.583338L433.81 0.630796L433.818 0.729666V18.7953H484.044V0.729666C484.044 0.467517 484.235 0.00256431 484.747 0L484.886 0.0118645C485.1 0.0531761 485.248 0.189419 485.337 0.328251L485.414 0.490399L485.438 0.583338L485.446 0.630796L485.454 0.729666V18.7953H535.684V0.729666C535.684 0.470807 535.871 0 536.389 0L536.525 0.0138419C536.737 0.0553502 536.885 0.187334 536.975 0.326274L537.054 0.490399L537.076 0.583338L537.084 0.630796L537.092 0.729666V18.7953H587.32V0.729666C587.32 0.469247 587.508 0.00160785 588.023 0L588.161 0.0118645C588.375 0.0532319 588.524 0.189281 588.613 0.328251L588.69 0.490399L588.714 0.583338L588.721 0.630796L588.729 0.729666V18.7953H638.958V0.729666C638.958 0.470807 639.145 0 639.662 0L639.799 0.0118645C640.012 0.0533857 640.159 0.189031 640.248 0.328251L640.328 0.490399L640.351 0.583338L640.357 0.630796L640.365 0.729666V18.7953H659.295L659.452 18.8151L659.489 18.825L659.624 18.8784C659.89 19.0231 660 19.2975 660 19.525L659.978 19.703C659.934 19.8835 659.822 20.0636 659.624 20.1716L659.489 20.225L659.452 20.2349C659.401 20.2484 659.348 20.2547 659.295 20.2547H640.365V68.4799H659.295L659.452 68.5016L659.489 68.5115L659.624 68.5649C659.89 68.7097 660 68.9822 660 69.2095V69.2155C659.998 69.4392 659.89 69.7111 659.624 69.8562C659.581 69.8794 659.536 69.8971 659.489 69.9095L659.452 69.9194C659.401 69.9329 659.348 69.9412 659.295 69.9412H640.365V118.164H659.295L659.452 118.184L659.489 118.194L659.624 118.247C659.89 118.392 659.999 118.665 660 118.892V118.898C659.998 119.122 659.89 119.394 659.624 119.539C659.581 119.562 659.536 119.582 659.489 119.594L659.452 119.604C659.401 119.617 659.348 119.624 659.295 119.624H640.365V167.847H659.295L659.452 167.867L659.489 167.877L659.624 167.93C659.89 168.075 660 168.349 660 168.577L659.978 168.755C659.934 168.935 659.822 169.115 659.624 169.223C659.581 169.246 659.536 169.264 659.489 169.277L659.452 169.287C659.401 169.3 659.348 169.306 659.295 169.306H640.365V217.532H659.295L659.452 217.551L659.489 217.561L659.624 217.615C659.89 217.759 660 218.034 660 218.261V218.265C659.999 218.489 659.89 218.763 659.624 218.908C659.581 218.931 659.536 218.949 659.489 218.961L659.452 218.971C659.401 218.985 659.348 218.993 659.295 218.993H640.365V267.214H659.295L659.452 267.236L659.489 267.246L659.624 267.299C659.89 267.444 660 267.716 660 267.944L659.978 268.124C659.934 268.304 659.822 268.483 659.624 268.59C659.581 268.614 659.536 268.633 659.489 268.646L659.452 268.656C659.401 268.669 659.348 268.675 659.295 268.675H640.365V316.899H659.295L659.452 316.918L659.489 316.928L659.624 316.982C659.891 317.127 659.999 317.4 660 317.624V317.628L659.978 317.806C659.934 317.987 659.822 318.167 659.624 318.275C659.581 318.298 659.536 318.316 659.489 318.328L659.452 318.338C659.401 318.352 659.348 318.358 659.295 318.358H640.365V366.583H659.295L659.452 366.603L659.489 366.613L659.624 366.666C659.89 366.811 660 367.085 660 367.313C659.999 367.54 659.889 367.815 659.624 367.959C659.581 367.983 659.536 368 659.489 368.013L659.452 368.023C659.401 368.036 659.348 368.043 659.295 368.043H640.365V416.266H659.153L659.309 416.287L659.345 416.297L659.479 416.351C659.747 416.496 659.856 416.769 659.857 416.993L659.836 417.175C659.792 417.356 659.678 417.534 659.481 417.642C659.438 417.665 659.392 417.683 659.345 417.695L659.309 417.705C659.258 417.719 659.205 417.727 659.153 417.727H644.32L659.363 422.56L659.491 422.619L659.527 422.641L659.64 422.728C659.831 422.918 659.885 423.181 659.842 423.402C659.797 423.626 659.626 423.902 659.293 423.972C659.242 423.983 659.189 423.986 659.137 423.984L659.097 423.982C659.045 423.979 658.993 423.97 658.943 423.954L639.552 417.727H591.94L609.168 424.367H659.153L659.309 424.387L659.345 424.397L659.481 424.45C659.746 424.595 659.857 424.867 659.857 425.095V425.099C659.857 425.326 659.746 425.599 659.481 425.743C659.439 425.767 659.392 425.784 659.345 425.797L659.309 425.807C659.258 425.82 659.205 425.827 659.153 425.827H612.955L633.904 433.902H659.153L659.309 433.922L659.345 433.932L659.481 433.987C659.745 434.131 659.857 434.401 659.857 434.63V434.636C659.856 434.86 659.748 435.133 659.481 435.279C659.439 435.302 659.392 435.32 659.345 435.332L659.309 435.342C659.258 435.355 659.205 435.362 659.153 435.362H637.691L659.4 443.732L659.541 443.803C659.795 443.971 659.87 444.261 659.852 444.485L659.836 444.59C659.799 444.746 659.707 444.909 659.547 445.021C659.42 445.11 659.255 445.16 659.082 445.142L658.905 445.1L633.641 435.362H576.167L596.774 445.292H659.153L659.309 445.312L659.345 445.322L659.479 445.375C659.747 445.52 659.856 445.794 659.857 446.018V446.022L659.836 446.2C659.792 446.38 659.678 446.559 659.481 446.667C659.438 446.69 659.392 446.709 659.345 446.722L659.309 446.732C659.258 446.745 659.205 446.752 659.153 446.752H599.803L625.505 459.138H659.153L659.309 459.158L659.345 459.168L659.479 459.221C659.746 459.366 659.857 459.638 659.857 459.866L659.836 460.046C659.792 460.226 659.679 460.406 659.481 460.514C659.439 460.538 659.392 460.555 659.345 460.568L659.309 460.578C659.258 460.591 659.205 460.597 659.153 460.597H628.534L659.452 475.497L659.563 475.568L659.596 475.594L659.689 475.685C659.856 475.888 659.891 476.154 659.826 476.375C659.802 476.454 659.754 476.532 659.697 476.607C659.803 476.745 659.857 476.908 659.857 477.057V477.063C659.856 477.287 659.747 477.559 659.481 477.704C659.439 477.727 659.392 477.747 659.345 477.759L659.309 477.769C659.258 477.783 659.205 477.789 659.153 477.789H580.685L612.501 498.236H659.153L659.309 498.257L659.345 498.267L659.479 498.319C659.747 498.464 659.856 498.739 659.857 498.963L659.836 499.145C659.792 499.325 659.678 499.504 659.481 499.612C659.438 499.635 659.392 499.653 659.345 499.665L659.309 499.675C659.258 499.689 659.205 499.697 659.153 499.697H614.774L657.442 527.118H659.153L659.309 527.137L659.345 527.147L659.479 527.201C659.747 527.346 659.856 527.619 659.857 527.843V527.847L659.836 528.025C659.796 528.19 659.696 528.351 659.529 528.46C659.868 528.682 659.909 529.087 659.804 529.354L659.802 529.356C659.74 529.512 659.617 529.668 659.424 529.752C659.272 529.817 659.099 529.826 658.939 529.773L658.783 529.7L658.781 529.698L657.037 528.577H550.307L590.238 566.935H659.153L659.309 566.955L659.345 566.965L659.479 567.018C659.746 567.162 659.857 567.435 659.857 567.663L659.836 567.843C659.792 568.023 659.679 568.203 659.481 568.311C659.439 568.335 659.392 568.352 659.345 568.365L659.309 568.374C659.258 568.388 659.205 568.394 659.153 568.394H591.756L651.043 625.344H659.153L659.309 625.366L659.345 625.375L659.479 625.429C659.746 625.573 659.857 625.846 659.857 626.073L659.836 626.253C659.792 626.433 659.679 626.612 659.481 626.72C659.439 626.743 659.392 626.761 659.345 626.773L659.309 626.783C659.258 626.797 659.205 626.805 659.153 626.805H652.563L659.776 633.736L659.78 633.74L659.865 633.841C660.039 634.087 660.038 634.411 659.899 634.65L659.897 634.653C659.803 634.812 659.636 634.949 659.414 634.988C659.244 635.017 659.079 634.982 658.943 634.901L658.818 634.806L658.816 634.804L650.488 626.805H490.979L494.666 633.924L494.708 634.025L494.722 634.07L494.744 634.163C494.773 634.371 494.717 634.647 494.49 634.837L494.486 634.841C494.222 635.058 493.854 635.048 493.603 634.839C493.571 634.812 493.541 634.782 493.514 634.748L493.487 634.713C493.463 634.683 493.443 634.65 493.425 634.616L489.379 626.805H330.356L330.348 634.27L330.339 634.379C330.294 634.648 330.087 635 329.642 635H329.632C329.196 634.991 328.991 634.646 328.947 634.379L328.939 634.27L328.947 626.805H169.926L165.864 634.618C165.782 634.775 165.632 634.919 165.421 634.976C165.255 635.02 165.086 635.001 164.94 634.928L164.803 634.839L164.799 634.837C164.512 634.595 164.481 634.202 164.623 633.926V633.922L168.325 626.805H9.63433L1.3243 634.804L1.32034 634.806C1.17176 634.947 0.955413 635.028 0.724505 634.988C0.556278 634.958 0.421615 634.872 0.326621 634.766L0.245461 634.653L0.243481 634.652C0.0821842 634.378 0.102158 633.991 0.362252 633.738L0.364232 633.736L7.56375 626.805H0.704709C0.187912 626.805 0.000421756 626.335 0 626.075L0.00791808 625.969C0.0507834 625.706 0.251027 625.344 0.704709 625.344H9.08204L68.246 568.394H0.704709C0.187339 568.394 8.01624e-06 567.923 0 567.665L0.00791808 567.558C0.0510691 567.296 0.251509 566.935 0.704709 566.935H69.7623L109.61 528.577H2.44471L1.07686 529.455C0.879699 529.581 0.638428 529.597 0.433515 529.508C0.287892 529.445 0.180788 529.341 0.110853 529.228L0.0534471 529.113C-0.0357546 528.888 -0.0198073 528.567 0.188054 528.338C0.0582219 528.182 0.000109231 527.986 0 527.847V527.843L0.00989761 527.741C0.0529153 527.481 0.249888 527.118 0.704709 527.118H2.03891L44.755 499.697H0.704709C0.187328 499.697 0 499.224 0 498.965L0.00989761 498.858C0.0533437 498.599 0.250622 498.236 0.704709 498.236H47.0314L78.8839 477.789H0.704709C0.185139 477.789 0.00190706 477.315 0 477.063V477.057L0.00791808 476.953C0.0298411 476.819 0.0956453 476.662 0.211809 476.537C0.126231 476.449 0.0653691 476.347 0.0336519 476.243C-0.0465214 475.974 0.0201265 475.55 0.405802 475.363L0.407781 475.361L31.0666 460.597H0.704709C0.187328 460.597 0 460.127 0 459.868L0.00791808 459.761C0.0511363 459.499 0.251623 459.138 0.704709 459.138H34.0972L59.8231 446.752H0.704709C0.187586 446.752 0.000186151 446.281 0 446.022V446.018L0.00989761 445.915C0.0529273 445.655 0.249908 445.292 0.704709 445.292H62.8538L83.4764 435.362H26.0089L0.95215 445.013C0.726443 445.1 0.491734 445.057 0.318703 444.94C0.195365 444.857 0.111474 444.743 0.0613652 444.626L0.0217747 444.507C-0.0409086 444.243 0.0407766 443.809 0.457269 443.647L21.9628 435.362H0.704709C0.184722 435.362 0.00161768 434.887 0 434.636V434.63L0.00791808 434.525C0.0510971 434.263 0.251557 433.902 0.704709 433.902H25.7496L46.7147 425.827H0.704709C0.186171 425.827 0.000931424 425.354 0 425.099V425.095L0.00791808 424.99C0.0510096 424.728 0.251409 424.367 0.704709 424.367H50.5015L67.7412 417.727H20.1297L0.912559 423.895C0.387025 424.06 0.0682441 423.619 0.0138566 423.345V423.341C-0.0365788 423.078 0.0603143 422.641 0.492901 422.501L15.3611 417.727H0.704709C0.187328 417.727 0 417.254 0 416.995L0.00989761 416.889C0.0533741 416.629 0.250674 416.266 0.704709 416.266H19.3142V368.043H0.839317C0.392679 368.039 0.192198 367.685 0.148464 367.422L0.140546 367.315C0.141069 367.054 0.328989 366.587 0.839317 366.583H19.3142V318.358H0.839317C0.329936 318.354 0.140604 317.892 0.140546 317.628V317.624L0.148464 317.52C0.19223 317.258 0.391844 316.902 0.839317 316.899H19.3142V268.675H0.839317C0.330265 268.671 0.140864 268.21 0.140546 267.946L0.148464 267.837C0.192156 267.573 0.393116 267.218 0.839317 267.214H19.3142V218.993H0.839317C0.327089 218.989 0.142125 218.521 0.140546 218.265V218.261C0.141069 218 0.329004 217.536 0.839317 217.532H19.3142V169.306H0.839317C0.393295 169.303 0.191702 168.949 0.148464 168.683L0.140546 168.577L0.148464 168.47C0.191796 168.206 0.392528 167.85 0.839317 167.847H19.3142V119.624H0.839317C0.327447 119.62 0.142377 119.154 0.140546 118.898V118.892L0.148464 118.787C0.191617 118.523 0.392256 118.168 0.839317 118.164H19.3142V69.9412H0.839317C0.327091 69.9372 0.142125 69.4695 0.140546 69.2135V69.2095L0.148464 69.1028C0.192095 68.839 0.393036 68.4834 0.839317 68.4799H19.3142V20.2547H0.839317C0.393104 20.2512 0.191583 19.8971 0.148464 19.6318L0.140546 19.525L0.148464 19.4182C0.191913 19.1544 0.39272 18.7988 0.839317 18.7953H19.3142V0.729666C19.3142 0.468423 19.5035 0.00201327 20.0169 0H20.0229L20.199 0.0217516C20.5783 0.115954 20.7236 0.499544 20.7236 0.729666V18.7953H70.954V0.729666C70.954 0.470807 71.1413 0 71.6587 0H71.6666L71.8408 0.0217516C72.2144 0.117242 72.3614 0.494798 72.3614 0.729666V18.7953H122.59V0.729666C122.59 0.470832 122.777 9.06174e-05 123.294 0H123.304L123.479 0.0217516C123.851 0.117599 123.999 0.494287 123.999 0.729666V18.7953H174.222V0.729666C174.222 0.466386 174.412 0.00365811 174.922 0H174.928L175.106 0.0197742C175.487 0.113775 175.631 0.501503 175.631 0.729666V18.7953H225.859V0.729666C225.859 0.466904 226.049 0.00303965 226.56 0H226.566L226.742 0.0197742C227.124 0.113351 227.269 0.501556 227.269 0.729666V18.7953H277.497V0.729666C277.497 0.46867 277.686 0.00177985 278.2 0H278.208L278.384 0.0217516C278.76 0.116853 278.907 0.497995 278.907 0.729666V18.7953H329.135V0.729666C329.135 0.465071 329.325 0.00445525 329.834 0H329.84L330.018 0.0197742C330.399 0.11348 330.544 0.501592 330.544 0.729666V18.7953Z" fill="url(#paint1_radial_722_4422)" fill-opacity="0.5"/>
<defs>
<radialGradient id="paint0_radial_722_4422" cx="0" cy="0" r="1" gradientUnits="userSpaceOnUse" gradientTransform="translate(330.09 354.218) rotate(90) scale(142.551 352.944)">
<stop stop-color="white"/>
<stop offset="1" stop-color="white" stop-opacity="0"/>
</radialGradient>
<radialGradient id="paint1_radial_722_4422" cx="0" cy="0" r="1" gradientUnits="userSpaceOnUse" gradientTransform="translate(330.09 354.218) rotate(90) scale(142.551 352.944)">
<stop stop-color="white"/>
<stop offset="1" stop-color="white" stop-opacity="0"/>
</radialGradient>
</defs>
</svg>
