<svg width="10" height="10" viewBox="0 0 10 10" fill="none" xmlns="http://www.w3.org/2000/svg">
<path d="M8.85313 9.56536C9.01056 9.72279 9.26244 9.72279 9.41987 9.56536L9.73472 9.25051C10.0811 8.90417 10.0811 8.36892 9.75046 8.03833L9.43561 7.72348C9.27818 7.56605 9.26244 7.29842 9.43561 7.12526L9.73472 6.82615C10.0811 6.47981 10.0811 5.94456 9.75046 5.61396L9.43561 5.29911C9.27818 5.14168 9.26244 4.87406 9.43561 4.70089L9.73472 4.40178C10.0811 4.05544 10.0811 3.52019 9.75046 3.1896L9.43561 2.87474C9.27818 2.71732 9.26244 2.44969 9.41986 2.29227L9.73472 1.97741C10.0653 1.64682 10.0811 1.09583 9.75046 0.76523C9.41986 0.434635 8.85313 0.434635 8.52253 0.765231L8.22342 1.06434C8.05026 1.23751 7.79837 1.23751 7.64095 1.08008L7.32609 0.765231C6.9955 0.434635 6.44451 0.418892 6.09817 0.76523L5.79906 1.06434C5.62589 1.23751 5.37401 1.23751 5.21658 1.08008L4.90173 0.76523C4.57113 0.434635 4.02014 0.418893 3.6738 0.765231L3.37469 1.06434C3.20152 1.23751 2.94964 1.23751 2.79221 1.08008L2.47736 0.76523C2.14677 0.434635 1.59577 0.418894 1.24944 0.765231L0.934585 1.08008C0.777158 1.23751 0.777157 1.48939 0.934583 1.64682L1.26518 1.97741C1.59577 2.30801 2.13102 2.30801 2.46162 1.97741L2.77647 1.66256C2.9339 1.50513 3.21727 1.50513 3.37469 1.66256L3.68954 1.97741C4.02014 2.30801 4.55539 2.30801 4.88599 1.97741L5.20084 1.66256C5.35826 1.50513 5.64163 1.50513 5.79906 1.66256L6.11391 1.97741C6.44451 2.30801 6.97976 2.30801 7.31035 1.97741L7.6252 1.66256C7.78263 1.50513 8.066 1.50513 8.22342 1.66256L8.85313 2.29227C9.01056 2.44969 8.99481 2.71732 8.83739 2.87474L8.52253 3.1896C8.19194 3.52019 8.20768 4.07118 8.53828 4.40178L8.85313 4.71663C9.01056 4.87406 8.99481 5.14168 8.83739 5.29911L8.52253 5.61396C8.19194 5.94456 8.20768 6.49555 8.53828 6.82615L8.83739 7.12526C9.01056 7.29842 8.99481 7.56605 8.83739 7.72348L8.52253 8.03833C8.19194 8.36892 8.19194 8.90417 8.53828 9.25051L8.85313 9.56536ZM7.31035 4.40178C7.65669 4.05544 7.65669 3.52019 7.32609 3.1896L6.9955 2.859C6.83807 2.70157 6.58619 2.70157 6.42876 2.859L1.24944 8.03833C0.918841 8.36892 0.934583 8.91992 1.26518 9.25051L1.59577 9.58111C1.73746 9.72279 1.98934 9.72279 2.14677 9.56536L7.31035 4.40178Z" fill="white"/>
</svg>
