<svg width="17" height="16" viewBox="0 0 17 16" fill="none" xmlns="http://www.w3.org/2000/svg">
<g opacity="0.25">
<path d="M8.91658 15.1666H6.24992C2.62992 15.1666 1.08325 13.62 1.08325 9.99998V5.99998C1.08325 2.37998 2.62992 0.833313 6.24992 0.833313H10.2499C13.8699 0.833313 15.4166 2.37998 15.4166 5.99998V8.66665C15.4166 8.93998 15.1899 9.16665 14.9166 9.16665C14.6433 9.16665 14.4166 8.93998 14.4166 8.66665V5.99998C14.4166 2.92665 13.3233 1.83331 10.2499 1.83331H6.24992C3.17658 1.83331 2.08325 2.92665 2.08325 5.99998V9.99998C2.08325 13.0733 3.17658 14.1666 6.24992 14.1666H8.91658C9.18992 14.1666 9.41658 14.3933 9.41658 14.6666C9.41658 14.94 9.18992 15.1666 8.91658 15.1666Z" fill="#292D32"/>
<path d="M8.91658 15.1666H6.24992C2.62992 15.1666 1.08325 13.62 1.08325 9.99998V5.99998C1.08325 2.37998 2.62992 0.833313 6.24992 0.833313H10.2499C13.8699 0.833313 15.4166 2.37998 15.4166 5.99998V8.66665C15.4166 8.93998 15.1899 9.16665 14.9166 9.16665C14.6433 9.16665 14.4166 8.93998 14.4166 8.66665V5.99998C14.4166 2.92665 13.3233 1.83331 10.2499 1.83331H6.24992C3.17658 1.83331 2.08325 2.92665 2.08325 5.99998V9.99998C2.08325 13.0733 3.17658 14.1666 6.24992 14.1666H8.91658C9.18992 14.1666 9.41658 14.3933 9.41658 14.6666C9.41658 14.94 9.18992 15.1666 8.91658 15.1666Z" fill="#292D32"/>
<path d="M4.91675 9.79332C4.64341 9.79332 4.41675 9.56665 4.41675 9.29332V7.15332C4.41675 6.87999 4.64341 6.65332 4.91675 6.65332C5.19008 6.65332 5.41675 6.87999 5.41675 7.15332V9.29332C5.41675 9.57332 5.19008 9.79332 4.91675 9.79332Z" fill="#292D32"/>
<path d="M11.5833 9.79332C11.3099 9.79332 11.0833 9.56665 11.0833 9.29332V7.15332C11.0833 6.87999 11.3099 6.65332 11.5833 6.65332C11.8566 6.65332 12.0833 6.87999 12.0833 7.15332V9.29332C12.0833 9.57332 11.8566 9.79332 11.5833 9.79332Z" fill="#292D32"/>
<path d="M8.91658 15.1666H6.24992C2.62992 15.1666 1.08325 13.62 1.08325 9.99998V5.99998C1.08325 2.37998 2.62992 0.833313 6.24992 0.833313H10.2499C13.8699 0.833313 15.4166 2.37998 15.4166 5.99998V8.66665C15.4166 8.93998 15.1899 9.16665 14.9166 9.16665C14.6433 9.16665 14.4166 8.93998 14.4166 8.66665V5.99998C14.4166 2.92665 13.3233 1.83331 10.2499 1.83331H6.24992C3.17658 1.83331 2.08325 2.92665 2.08325 5.99998V9.99998C2.08325 13.0733 3.17658 14.1666 6.24992 14.1666H8.91658C9.18992 14.1666 9.41658 14.3933 9.41658 14.6666C9.41658 14.94 9.18992 15.1666 8.91658 15.1666Z" fill="#292D32"/>
<path d="M11.9699 14.5C11.8366 14.5 11.7099 14.4467 11.6166 14.3534L10.5633 13.3067C10.3699 13.1134 10.3633 12.7934 10.5633 12.6C10.7566 12.4067 11.0766 12.4 11.2699 12.6L11.9433 13.2667L13.8766 11.0067C14.0566 10.7934 14.3699 10.7734 14.5833 10.9534C14.7899 11.1334 14.8166 11.4467 14.6366 11.66L12.3566 14.3267C12.2633 14.4334 12.1366 14.4934 11.9966 14.5C11.9833 14.5 11.9766 14.5 11.9699 14.5Z" fill="#292D32"/>
<path d="M8.25 9.5C7.97667 9.5 7.75 9.27333 7.75 9V7C7.75 6.72667 7.97667 6.5 8.25 6.5C8.52333 6.5 8.75 6.72667 8.75 7V9C8.75 9.27333 8.52333 9.5 8.25 9.5Z" fill="#292D32"/>
</g>
</svg>
