<svg width="21" height="20" viewBox="0 0 21 20" fill="none" xmlns="http://www.w3.org/2000/svg">
<path d="M12.4582 1.66666H8.54155C7.67489 1.66666 6.96655 2.36666 6.96655 3.23332V4.01666C6.96655 4.88332 7.66655 5.58332 8.53322 5.58332H12.4582C13.3249 5.58332 14.0249 4.88332 14.0249 4.01666V3.23332C14.0332 2.36666 13.3249 1.66666 12.4582 1.66666Z" fill="white"/>
<path d="M14.8667 4.01668C14.8667 5.34168 13.7834 6.42501 12.4584 6.42501H8.5417C7.2167 6.42501 6.13337 5.34168 6.13337 4.01668C6.13337 3.55001 5.63337 3.25835 5.2167 3.47501C4.0417 4.10001 3.2417 5.34168 3.2417 6.76668V14.6083C3.2417 16.6583 4.9167 18.3333 6.9667 18.3333H14.0334C16.0834 18.3333 17.7584 16.6583 17.7584 14.6083V6.76668C17.7584 5.34168 16.9584 4.10001 15.7834 3.47501C15.3667 3.25835 14.8667 3.55001 14.8667 4.01668ZM10.8167 14.125H7.1667C6.82503 14.125 6.5417 13.8417 6.5417 13.5C6.5417 13.1583 6.82503 12.875 7.1667 12.875H10.8167C11.1584 12.875 11.4417 13.1583 11.4417 13.5C11.4417 13.8417 11.1584 14.125 10.8167 14.125ZM13 10.7917H7.1667C6.82503 10.7917 6.5417 10.5083 6.5417 10.1667C6.5417 9.82501 6.82503 9.54168 7.1667 9.54168H13C13.3417 9.54168 13.625 9.82501 13.625 10.1667C13.625 10.5083 13.3417 10.7917 13 10.7917Z" fill="white"/>
</svg>
