<svg width="11" height="13" viewBox="0 0 11 13" fill="none" xmlns="http://www.w3.org/2000/svg">
<path d="M9.73138 0.679999H10.0834C10.2274 0.679999 10.3554 0.808 10.3554 0.952V5C10.3554 5.336 10.0834 5.608 9.73138 5.608H6.94738C6.78738 5.608 6.65938 5.736 6.65938 5.912V6.552C6.65938 6.712 6.78738 6.84 6.94738 6.84H9.73138C10.0834 6.84 10.3554 7.112 10.3554 7.464V12.392C10.3554 12.728 10.0834 13 9.73138 13H9.39538C9.23538 13 9.12338 12.872 9.12338 12.728V8.344C9.12338 8.2 8.99538 8.072 8.85138 8.072H7.26738C6.93138 8.072 6.65938 7.8 6.65938 7.464V7.144C6.65938 6.968 6.53138 6.84 6.35538 6.84H4.48338C4.32338 6.84 4.19538 6.968 4.19538 7.144V7.464C4.19538 7.8 3.92338 8.072 3.57138 8.072H2.00338C1.84338 8.072 1.73138 8.2 1.73138 8.344V12.392C1.73138 12.728 1.45938 13 1.10738 13H0.771375C0.627375 13 0.499375 12.872 0.499375 12.728V7.464C0.499375 7.112 0.771375 6.84 1.10738 6.84H3.89138C4.06738 6.84 4.19538 6.712 4.19538 6.552V5.912C4.19538 5.736 4.06738 5.608 3.89138 5.608H1.10738C0.771375 5.608 0.499375 5.336 0.499375 5V1.304C0.499375 0.967999 0.771375 0.679999 1.12338 0.679999H1.45938C1.60338 0.679999 1.73138 0.808 1.73138 0.952V4.104C1.73138 4.264 1.84338 4.376 2.00338 4.376H3.57138C3.92338 4.376 4.19538 4.648 4.19538 5V5.32C4.19538 5.48 4.32338 5.608 4.48338 5.608H6.35538C6.53138 5.608 6.65938 5.48 6.65938 5.32V5C6.65938 4.648 6.93138 4.376 7.26738 4.376H8.85138C8.99538 4.376 9.12338 4.264 9.12338 4.104V1.304C9.12338 0.967999 9.39538 0.679999 9.73138 0.679999Z" fill="black"/>
</svg>
