<svg width="32" height="32" viewBox="0 0 32 32" fill="none" xmlns="http://www.w3.org/2000/svg">
<path d="M16.2856 13.4547V18.8765H23.974C23.6364 20.6201 22.6233 22.0965 21.1038 23.0892L25.7402 26.6147C28.4415 24.1711 30 20.582 30 16.3184C30 15.3257 29.9091 14.3711 29.7402 13.4548L16.2856 13.4547Z" fill="#4285F4"/>
<path d="M8.27956 18.6647L7.23387 19.4492L3.53247 22.2746C5.88314 26.8436 10.701 30 16.2855 30C20.1425 30 23.3763 28.7527 25.74 26.6146L21.1036 23.0891C19.8309 23.9291 18.2075 24.4383 16.2855 24.4383C12.5711 24.4383 9.41536 21.9819 8.2854 18.6728L8.27956 18.6647Z" fill="#34A853"/>
<path d="M3.53237 9.72571C2.55839 11.6093 2 13.7347 2 16.0001C2 18.2656 2.55839 20.391 3.53237 22.2746C3.53237 22.2872 8.28576 18.6601 8.28576 18.6601C8.00004 17.8201 7.83116 16.9292 7.83116 16C7.83116 15.0708 8.00004 14.1799 8.28576 13.3399L3.53237 9.72571Z" fill="#FBBC05"/>
<path d="M16.2858 7.57452C18.3897 7.57452 20.2598 8.28723 21.7533 9.66179L25.8443 5.65276C23.3637 3.38735 20.143 2 16.2858 2C10.7013 2 5.88314 5.14362 3.53247 9.72544L8.28571 13.34C9.41552 10.0309 12.5714 7.57452 16.2858 7.57452Z" fill="#EA4335"/>
</svg>
