<svg width="13" height="12" viewBox="0 0 13 12" fill="none" xmlns="http://www.w3.org/2000/svg">
<path d="M6.25 10.825C6.095 10.825 5.945 10.805 5.82 10.76C3.91 10.105 0.875 7.78005 0.875 4.34505C0.875 2.59505 2.29 1.17505 4.03 1.17505C4.875 1.17505 5.665 1.50505 6.25 2.09505C6.835 1.50505 7.625 1.17505 8.47 1.17505C10.21 1.17505 11.625 2.60005 11.625 4.34505C11.625 7.78505 8.59 10.105 6.68 10.76C6.555 10.805 6.405 10.825 6.25 10.825ZM4.03 1.92505C2.705 1.92505 1.625 3.01005 1.625 4.34505C1.625 7.76005 4.91 9.66005 6.065 10.055C6.155 10.085 6.35 10.085 6.44 10.055C7.59 9.66005 10.88 7.76505 10.88 4.34505C10.88 3.01005 9.8 1.92505 8.475 1.92505C7.715 1.92505 7.01 2.28005 6.555 2.89505C6.415 3.08505 6.095 3.08505 5.955 2.89505C5.49 2.27505 4.79 1.92505 4.03 1.92505Z" fill="#292D32"/>
</svg>
