<svg width="16" height="16" viewBox="0 0 16 16" fill="none" xmlns="http://www.w3.org/2000/svg">
<path d="M8.0026 1.33301C6.25594 1.33301 4.83594 2.75301 4.83594 4.49967C4.83594 6.21301 6.17594 7.59967 7.9226 7.65967C7.97594 7.65301 8.02927 7.65301 8.06927 7.65967C8.0826 7.65967 8.08927 7.65967 8.1026 7.65967C8.10927 7.65967 8.10927 7.65967 8.11594 7.65967C9.8226 7.59967 11.1626 6.21301 11.1693 4.49967C11.1693 2.75301 9.74927 1.33301 8.0026 1.33301Z" fill="white"/>
<path d="M11.3847 9.43342C9.52469 8.19342 6.49135 8.19342 4.61802 9.43342C3.77135 10.0001 3.30469 10.7668 3.30469 11.5868C3.30469 12.4068 3.77135 13.1668 4.61135 13.7268C5.54469 14.3534 6.77135 14.6668 7.99802 14.6668C9.22469 14.6668 10.4514 14.3534 11.3847 13.7268C12.2247 13.1601 12.6914 12.4001 12.6914 11.5734C12.6847 10.7534 12.2247 9.99342 11.3847 9.43342ZM9.33135 12.0868H8.49802V12.9201C8.49802 13.1934 8.27135 13.4201 7.99802 13.4201C7.72469 13.4201 7.49802 13.1934 7.49802 12.9201V12.0868H6.66469C6.39135 12.0868 6.16469 11.8601 6.16469 11.5868C6.16469 11.3134 6.39135 11.0868 6.66469 11.0868H7.49802V10.2534C7.49802 9.98009 7.72469 9.75342 7.99802 9.75342C8.27135 9.75342 8.49802 9.98009 8.49802 10.2534V11.0868H9.33135C9.60469 11.0868 9.83135 11.3134 9.83135 11.5868C9.83135 11.8601 9.60469 12.0868 9.33135 12.0868Z" fill="white"/>
</svg>
