<svg width="12" height="12" viewBox="0 0 12 12" fill="none" xmlns="http://www.w3.org/2000/svg">
<path d="M6 11C3.24 11 1 8.76 1 6C1 3.24 3.24 1 6 1C8.76 1 11 3.24 11 6C11 8.76 8.76 11 6 11ZM7.765 5.985C7.69 5.91 7.595 5.875 7.5 5.875C7.405 5.875 7.31 5.91 7.235 5.985L6.375 6.845V4.25C6.375 4.045 6.205 3.875 6 3.875C5.795 3.875 5.625 4.045 5.625 4.25V6.845L4.765 5.985C4.62 5.84 4.38 5.84 4.235 5.985C4.09 6.13 4.09 6.37 4.235 6.515L5.735 8.015C5.88 8.16 6.12 8.16 6.265 8.015L7.765 6.515C7.91 6.37 7.91 6.13 7.765 5.985Z" fill="#FE3F41"/>
</svg>
