<svg width="31" height="30" viewBox="0 0 31 30" fill="none" xmlns="http://www.w3.org/2000/svg">
<path d="M22.6589 8.75623C21.3237 8.16937 19.8962 7.74284 18.4038 7.5C18.2204 7.81133 18.0063 8.23007 17.8587 8.5632C16.2721 8.33904 14.7002 8.33904 13.1429 8.5632C12.9953 8.23007 12.7762 7.81133 12.5913 7.5C11.0972 7.74284 9.66807 8.17092 8.33298 8.75934C5.64008 12.5825 4.91008 16.3107 5.27508 19.986C7.06115 21.2391 8.79207 22.0003 10.4938 22.4984C10.9139 21.9552 11.2887 21.3777 11.6115 20.769C10.9967 20.5495 10.4078 20.2787 9.85138 19.9642C9.999 19.8615 10.1434 19.7541 10.2829 19.6436C13.6766 21.1348 17.3639 21.1348 20.7171 19.6436C20.8581 19.7541 21.0026 19.8615 21.1486 19.9642C20.5905 20.2802 20 20.5511 19.3852 20.7706C19.708 21.3777 20.0811 21.9567 20.5029 22.5C22.2062 22.0019 23.9388 21.2407 25.7248 19.986C26.1531 15.7254 24.9932 12.0314 22.6589 8.75623ZM12.0738 17.7257C11.0551 17.7257 10.2196 16.8322 10.2196 15.7441C10.2196 14.656 11.0372 13.7609 12.0738 13.7609C13.1104 13.7609 13.9459 14.6544 13.928 15.7441C13.9297 16.8322 13.1104 17.7257 12.0738 17.7257ZM18.9261 17.7257C17.9074 17.7257 17.0719 16.8322 17.0719 15.7441C17.0719 14.656 17.8895 13.7609 18.9261 13.7609C19.9627 13.7609 20.7982 14.6544 20.7803 15.7441C20.7803 16.8322 19.9627 17.7257 18.9261 17.7257Z" fill="white"/>
</svg>
