<svg width="17" height="16" viewBox="0 0 17 16" fill="none" xmlns="http://www.w3.org/2000/svg">
<path d="M3.83333 9.83341C2.82 9.83341 2 9.01341 2 8.00008C2 6.98675 2.82 6.16675 3.83333 6.16675C4.84667 6.16675 5.66667 6.98675 5.66667 8.00008C5.66667 9.01341 4.84667 9.83341 3.83333 9.83341ZM3.83333 7.16675C3.37333 7.16675 3 7.54008 3 8.00008C3 8.46008 3.37333 8.83341 3.83333 8.83341C4.29333 8.83341 4.66667 8.46008 4.66667 8.00008C4.66667 7.54008 4.29333 7.16675 3.83333 7.16675Z" fill="#868C98"/>
<path d="M13.1666 9.83341C12.1533 9.83341 11.3333 9.01341 11.3333 8.00008C11.3333 6.98675 12.1533 6.16675 13.1666 6.16675C14.1799 6.16675 14.9999 6.98675 14.9999 8.00008C14.9999 9.01341 14.1799 9.83341 13.1666 9.83341ZM13.1666 7.16675C12.7066 7.16675 12.3333 7.54008 12.3333 8.00008C12.3333 8.46008 12.7066 8.83341 13.1666 8.83341C13.6266 8.83341 13.9999 8.46008 13.9999 8.00008C13.9999 7.54008 13.6266 7.16675 13.1666 7.16675Z" fill="#868C98"/>
<path d="M8.50008 9.83341C7.48675 9.83341 6.66675 9.01341 6.66675 8.00008C6.66675 6.98675 7.48675 6.16675 8.50008 6.16675C9.51341 6.16675 10.3334 6.98675 10.3334 8.00008C10.3334 9.01341 9.51341 9.83341 8.50008 9.83341ZM8.50008 7.16675C8.04008 7.16675 7.66675 7.54008 7.66675 8.00008C7.66675 8.46008 8.04008 8.83341 8.50008 8.83341C8.96008 8.83341 9.33341 8.46008 9.33341 8.00008C9.33341 7.54008 8.96008 7.16675 8.50008 7.16675Z" fill="#868C98"/>
</svg>
