<svg width="17" height="16" viewBox="0 0 17 16" fill="none" xmlns="http://www.w3.org/2000/svg">
<path d="M8.49967 15.1667C4.54634 15.1667 1.33301 11.9534 1.33301 8.00004C1.33301 4.04671 4.54634 0.833374 8.49967 0.833374C12.453 0.833374 15.6663 4.04671 15.6663 8.00004C15.6663 11.9534 12.453 15.1667 8.49967 15.1667ZM8.49967 1.83337C5.09967 1.83337 2.33301 4.60004 2.33301 8.00004C2.33301 11.4 5.09967 14.1667 8.49967 14.1667C11.8997 14.1667 14.6663 11.4 14.6663 8.00004C14.6663 4.60004 11.8997 1.83337 8.49967 1.83337Z" fill="white"/>
<path d="M8.5 9.16671C8.22667 9.16671 8 8.94004 8 8.66671V5.33337C8 5.06004 8.22667 4.83337 8.5 4.83337C8.77333 4.83337 9 5.06004 9 5.33337V8.66671C9 8.94004 8.77333 9.16671 8.5 9.16671Z" fill="white"/>
<path d="M8.49967 11.3333C8.41301 11.3333 8.32634 11.3133 8.24634 11.28C8.16634 11.2466 8.09301 11.2 8.02634 11.14C7.96634 11.0733 7.91967 11.0066 7.88634 10.92C7.85301 10.84 7.83301 10.7533 7.83301 10.6666C7.83301 10.58 7.85301 10.4933 7.88634 10.4133C7.91967 10.3333 7.96634 10.26 8.02634 10.1933C8.09301 10.1333 8.16634 10.0866 8.24634 10.0533C8.40634 9.98663 8.59301 9.98663 8.75301 10.0533C8.83301 10.0866 8.90634 10.1333 8.97301 10.1933C9.03301 10.26 9.07967 10.3333 9.11301 10.4133C9.14634 10.4933 9.16634 10.58 9.16634 10.6666C9.16634 10.7533 9.14634 10.84 9.11301 10.92C9.07967 11.0066 9.03301 11.0733 8.97301 11.14C8.90634 11.2 8.83301 11.2466 8.75301 11.28C8.67301 11.3133 8.58634 11.3333 8.49967 11.3333Z" fill="white"/>
</svg>
