<svg width="16" height="15" viewBox="0 0 16 15" fill="none" xmlns="http://www.w3.org/2000/svg">
<path d="M7.82703 1.37646C4.49623 1.37646 1.79297 4.07973 1.79297 7.41053C1.79297 10.7413 4.49623 13.4446 7.82703 13.4446C11.1578 13.4446 13.8611 10.7413 13.8611 7.41053C13.8611 4.07973 11.1578 1.37646 7.82703 1.37646ZM9.95706 7.42863C9.86655 7.51914 9.7519 7.56138 9.63725 7.56138C9.5226 7.56138 9.40796 7.51914 9.31745 7.42863L8.27959 6.39077V9.52245C8.27959 9.76985 8.07443 9.975 7.82703 9.975C7.57964 9.975 7.37448 9.76985 7.37448 9.52245V6.39077L6.33662 7.42863C6.16163 7.60362 5.872 7.60362 5.69701 7.42863C5.52202 7.25364 5.52202 6.96401 5.69701 6.78902L7.50723 4.9788C7.68221 4.80381 7.97185 4.80381 8.14684 4.9788L9.95706 6.78902C10.132 6.96401 10.132 7.25364 9.95706 7.42863Z" fill="#A0CDA0"/>
</svg>
