<svg width="15" height="14" viewBox="0 0 15 14" fill="none" xmlns="http://www.w3.org/2000/svg">
<path d="M7.4987 0.333252C3.8187 0.333252 0.832031 3.31992 0.832031 6.99992C0.832031 10.6799 3.8187 13.6666 7.4987 13.6666C11.1787 13.6666 14.1654 10.6799 14.1654 6.99992C14.1654 3.31992 11.1787 0.333252 7.4987 0.333252ZM9.85203 7.01992C9.75203 7.11992 9.62537 7.16659 9.4987 7.16659C9.37203 7.16659 9.24537 7.11992 9.14536 7.01992L7.9987 5.87325V9.33325C7.9987 9.60659 7.77203 9.83325 7.4987 9.83325C7.22536 9.83325 6.9987 9.60659 6.9987 9.33325V5.87325L5.85203 7.01992C5.6587 7.21325 5.3387 7.21325 5.14536 7.01992C4.95203 6.82659 4.95203 6.50659 5.14536 6.31325L7.14536 4.31325C7.3387 4.11992 7.6587 4.11992 7.85203 4.31325L9.85203 6.31325C10.0454 6.50659 10.0454 6.82659 9.85203 7.01992Z" fill="#A0CDA0"/>
</svg>
