<svg width="14" height="14" viewBox="0 0 14 14" fill="none" xmlns="http://www.w3.org/2000/svg">
<path d="M6.66667 13.6667C2.98667 13.6667 0 10.6801 0 7.00008C0 3.32008 2.98667 0.333414 6.66667 0.333414C10.3467 0.333414 13.3333 3.32008 13.3333 7.00008C13.3333 10.6801 10.3467 13.6667 6.66667 13.6667ZM9.02 6.98008C8.92 6.88008 8.79333 6.83341 8.66667 6.83341C8.54 6.83341 8.41333 6.88008 8.31333 6.98008L7.16667 8.12675V4.66675C7.16667 4.39341 6.94 4.16675 6.66667 4.16675C6.39333 4.16675 6.16667 4.39341 6.16667 4.66675V8.12675L5.02 6.98008C4.82667 6.78675 4.50667 6.78675 4.31333 6.98008C4.12 7.17341 4.12 7.49341 4.31333 7.68675L6.31333 9.68675C6.50667 9.88008 6.82667 9.88008 7.02 9.68675L9.02 7.68675C9.21333 7.49341 9.21333 7.17341 9.02 6.98008Z" fill="#FE3F41"/>
</svg>
