<svg width="16" height="16" viewBox="0 0 16 16" fill="none" xmlns="http://www.w3.org/2000/svg">
<path d="M10.1728 14.6667C10.1328 14.6667 10.0861 14.66 10.0461 14.6467C8.70612 14.2667 7.29945 14.2667 5.95945 14.6467C5.71278 14.7133 5.45278 14.5734 5.38612 14.3267C5.31278 14.08 5.45945 13.82 5.70612 13.7533C7.21279 13.3267 8.79945 13.3267 10.3061 13.7533C10.5528 13.8267 10.6995 14.08 10.6261 14.3267C10.5595 14.5334 10.3728 14.6667 10.1728 14.6667Z" fill="white"/>
<path d="M12.8084 4.24001C12.1151 2.84001 10.7751 1.80667 9.22177 1.46667C7.5951 1.10667 5.92844 1.49334 4.6551 2.52001C3.3751 3.54001 2.64844 5.06667 2.64844 6.70001C2.64844 8.42667 3.68177 10.2333 5.24177 11.28V11.8333C5.2351 12.02 5.22844 12.3067 5.4551 12.54C5.68844 12.78 6.0351 12.8067 6.30844 12.8067H9.72844C10.0884 12.8067 10.3618 12.7067 10.5484 12.52C10.8018 12.26 10.7951 11.9267 10.7884 11.7467V11.28C12.8551 9.88667 14.1551 6.94667 12.8084 4.24001ZM9.14844 7.74667L8.4351 8.98667C8.34177 9.14667 8.1751 9.24001 8.00177 9.24001C7.9151 9.24001 7.82844 9.22001 7.7551 9.17334C7.5151 9.03334 7.4351 8.72667 7.56844 8.49334L8.1351 7.50667H7.5751C7.24177 7.50667 6.96844 7.36001 6.82177 7.11334C6.6751 6.86001 6.68844 6.55334 6.8551 6.26001L7.56844 5.02001C7.70844 4.78001 8.0151 4.70001 8.24844 4.83334C8.48844 4.97334 8.56844 5.28001 8.4351 5.51334L7.86844 6.50001H8.42844C8.76177 6.50001 9.0351 6.64667 9.18177 6.89334C9.32844 7.14667 9.3151 7.46001 9.14844 7.74667Z" fill="white"/>
</svg>
