<svg width="13" height="12" viewBox="0 0 13 12" fill="none" xmlns="http://www.w3.org/2000/svg">
<path d="M6.5 11.405C6.155 11.405 5.83 11.23 5.6 10.925L4.85 9.925C4.835 9.905 4.775 9.88 4.75 9.875H4.5C2.415 9.875 1.125 9.31 1.125 6.5V4C1.125 1.79 2.29 0.625 4.5 0.625H8.5C10.71 0.625 11.875 1.79 11.875 4V6.5C11.875 8.71 10.71 9.875 8.5 9.875H8.25C8.21 9.875 8.175 9.895 8.15 9.925L7.4 10.925C7.17 11.23 6.845 11.405 6.5 11.405ZM4.5 1.375C2.71 1.375 1.875 2.21 1.875 4V6.5C1.875 8.76 2.65 9.125 4.5 9.125H4.75C5.005 9.125 5.295 9.27 5.45 9.475L6.2 10.475C6.375 10.705 6.625 10.705 6.8 10.475L7.55 9.475C7.715 9.255 7.975 9.125 8.25 9.125H8.5C10.29 9.125 11.125 8.29 11.125 6.5V4C11.125 2.21 10.29 1.375 8.5 1.375H4.5Z" fill="#292D32"/>
<path d="M6.5 6C6.22 6 6 5.775 6 5.5C6 5.225 6.225 5 6.5 5C6.775 5 7 5.225 7 5.5C7 5.775 6.78 6 6.5 6Z" fill="#292D32"/>
<path d="M8.5 6C8.22 6 8 5.775 8 5.5C8 5.225 8.225 5 8.5 5C8.775 5 9 5.225 9 5.5C9 5.775 8.78 6 8.5 6Z" fill="#292D32"/>
<path d="M4.5 6C4.22 6 4 5.775 4 5.5C4 5.225 4.225 5 4.5 5C4.775 5 5 5.225 5 5.5C5 5.775 4.78 6 4.5 6Z" fill="#292D32"/>
</svg>
