<svg width="13" height="12" viewBox="0 0 13 12" fill="none" xmlns="http://www.w3.org/2000/svg">
<path d="M9 6.23505C8.795 6.23505 8.625 6.06505 8.625 5.86005V4.97507C8.625 4.74007 8.435 4.55005 8.2 4.55005H4.5C4.295 4.55005 4.125 4.38005 4.125 4.17505C4.125 3.97005 4.295 3.80005 4.5 3.80005H8.2C8.85 3.80005 9.375 4.33007 9.375 4.97507V5.86005C9.375 6.06505 9.205 6.23505 9 6.23505Z" fill="#292D32"/>
<path d="M5.34375 5.38994C5.24875 5.38994 5.15375 5.35492 5.07875 5.27992L4.23375 4.43492C4.08875 4.28992 4.08875 4.04992 4.23375 3.90492L5.07875 3.05992C5.22375 2.91492 5.46375 2.91492 5.60875 3.05992C5.75375 3.20492 5.75375 3.44492 5.60875 3.58992L5.02875 4.16994L5.60875 4.74992C5.75375 4.89492 5.75375 5.13492 5.60875 5.27992C5.53375 5.35492 5.43875 5.38994 5.34375 5.38994Z" fill="#292D32"/>
<path d="M9 8.20502H5.3C4.65 8.20502 4.125 7.67503 4.125 7.03003V6.14502C4.125 5.94002 4.295 5.77002 4.5 5.77002C4.705 5.77002 4.875 5.94002 4.875 6.14502V7.03003C4.875 7.26503 5.065 7.45502 5.3 7.45502H9C9.205 7.45502 9.375 7.62502 9.375 7.83002C9.375 8.03502 9.205 8.20502 9 8.20502Z" fill="#292D32"/>
<path d="M8.155 9.04497C8.06 9.04497 7.965 9.00995 7.89 8.93495C7.745 8.78995 7.745 8.54995 7.89 8.40495L8.47 7.82497L7.89 7.24495C7.745 7.09995 7.745 6.85995 7.89 6.71495C8.035 6.56995 8.275 6.56995 8.42 6.71495L9.265 7.55995C9.41 7.70495 9.41 7.94495 9.265 8.08995L8.42 8.93495C8.35 9.00995 8.25 9.04497 8.155 9.04497Z" fill="#292D32"/>
<path d="M6.75 11.375C3.785 11.375 1.375 8.965 1.375 6C1.375 3.035 3.785 0.625 6.75 0.625C9.715 0.625 12.125 3.035 12.125 6C12.125 8.965 9.715 11.375 6.75 11.375ZM6.75 1.375C4.2 1.375 2.125 3.45 2.125 6C2.125 8.55 4.2 10.625 6.75 10.625C9.3 10.625 11.375 8.55 11.375 6C11.375 3.45 9.3 1.375 6.75 1.375Z" fill="#292D32"/>
</svg>
