<svg width="32" height="32" viewBox="0 0 32 32" fill="none" xmlns="http://www.w3.org/2000/svg">
<path d="M22.6667 4.66669H9.33342C5.33341 4.66669 2.66675 6.66669 2.66675 11.3334V20.6667C2.66675 25.3334 5.33341 27.3334 9.33342 27.3334H22.6667C26.6667 27.3334 29.3334 25.3334 29.3334 20.6667V11.3334C29.3334 6.66669 26.6667 4.66669 22.6667 4.66669ZM23.2934 12.7867L19.1201 16.12C18.2401 16.8267 17.1201 17.1734 16.0001 17.1734C14.8801 17.1734 13.7467 16.8267 12.8801 16.12L8.70675 12.7867C8.28008 12.44 8.21341 11.8 8.54675 11.3734C8.89341 10.9467 9.52008 10.8667 9.94675 11.2134L14.1201 14.5467C15.1334 15.36 16.8534 15.36 17.8667 14.5467L22.0401 11.2134C22.4667 10.8667 23.1067 10.9334 23.4401 11.3734C23.7867 11.8 23.7201 12.44 23.2934 12.7867Z" fill="#0A0D14"/>
</svg>
