<svg width="93" height="18" viewBox="0 0 93 18" fill="none" xmlns="http://www.w3.org/2000/svg">
<g clip-path="url(#clip0_2643_49254)">
<path d="M8.39091 3.86632C8.39489 3.70641 8.60446 3.64767 8.6941 3.78017C9.77388 5.37724 11.6123 6.42869 13.6993 6.42869C14.4817 6.42869 15.2292 6.28053 15.9147 6.01163C14.5502 3.28022 11.7138 1.39858 8.43174 1.38291C3.8248 1.36072 0.0365185 5.06265 0.000263854 9.62411C-0.00698708 10.5385 0.135395 11.4196 0.404338 12.2439C2.38714 12.0815 4.32512 11.2499 5.84188 9.74748C7.4872 8.11841 8.33686 6.00053 8.39091 3.86632Z" fill="url(#paint0_linear_2643_49254)"/>
<path d="M8.34954 17.9991C12.9558 18.0206 16.7435 14.3206 16.7804 9.75976C16.7876 8.84536 16.6453 7.96496 16.377 7.14062C14.3935 7.30311 12.4562 8.13464 10.9388 9.63709C9.29346 11.2661 8.44443 13.384 8.39038 15.5182C8.38639 15.6782 8.17683 15.7369 8.08718 15.6044C7.0074 14.0073 5.16898 12.9559 3.08202 12.9559C2.30024 12.9559 1.55273 13.1034 0.867188 13.3723C2.23234 16.1024 5.06812 17.9833 8.34954 17.9991Z" fill="url(#paint1_linear_2643_49254)"/>
<path d="M76.75 5.03906H77.5793C78.7939 5.03906 79.7784 6.01398 79.7784 7.21663V15.7425H76.75V5.03906Z" fill="white"/>
<path d="M23.2656 11.5593C23.2814 12.1221 23.4946 12.599 23.9051 12.9898C24.3315 13.3806 25.042 13.576 26.0368 13.576C26.9526 13.576 27.608 13.4432 28.0027 13.1774C28.4133 12.9116 28.6185 12.552 28.6185 12.0987C28.6185 11.8017 28.4843 11.5749 28.2159 11.4186C27.9633 11.2623 27.608 11.145 27.15 11.0668C26.6921 10.973 25.9737 10.8715 24.9947 10.762C23.2893 10.5588 22.1366 10.1054 21.5366 9.40191C20.9523 8.68274 20.6602 7.86194 20.6602 6.93958C20.6602 6.2517 20.8655 5.62636 21.2761 5.06355C21.6866 4.4851 22.2945 4.02392 23.0998 3.67997C23.9051 3.33603 24.8762 3.16406 26.0131 3.16406C27.608 3.16406 28.8633 3.53927 29.7791 4.28969C30.695 5.02447 31.1924 5.97811 31.2713 7.15066H28.2869C28.2396 6.68163 28.0343 6.29079 27.6711 5.97811C27.3237 5.66544 26.7474 5.5091 25.9421 5.5091C24.442 5.5091 23.692 5.93122 23.692 6.77543C23.692 7.00992 23.7472 7.20535 23.8578 7.36168C23.9841 7.518 24.2447 7.65875 24.6394 7.78378C25.0341 7.90888 25.6184 8.01051 26.3921 8.08867C28.0501 8.26064 29.337 8.64362 30.2529 9.23769C31.1845 9.81618 31.6503 10.6917 31.6503 11.8642C31.6503 13.1618 31.1529 14.1623 30.1581 14.8658C29.1791 15.5693 27.7738 15.9211 25.9421 15.9211C24.1735 15.9211 22.7998 15.538 21.8208 14.772C20.8576 13.9903 20.3444 12.9195 20.2812 11.5593H23.2656Z" fill="white"/>
<path d="M38.0967 3.16406C39.36 3.16406 40.4653 3.44547 41.4127 4.00828C42.3601 4.57109 43.0865 5.33713 43.5918 6.30642C44.097 7.27569 44.3497 8.35445 44.3497 9.54258C44.3497 10.7307 44.097 11.8095 43.5918 12.7787C43.0865 13.748 42.3601 14.514 41.4127 15.0769C40.4653 15.6397 39.36 15.9211 38.0967 15.9211C36.8335 15.9211 35.7281 15.6397 34.7807 15.0769C33.8333 14.514 33.1069 13.748 32.6017 12.7787C32.0964 11.8095 31.8438 10.7307 31.8438 9.54258C31.8438 8.35445 32.0964 7.27569 32.6017 6.30642C33.1069 5.33713 33.8333 4.57109 34.7807 4.00828C35.7281 3.44547 36.8335 3.16406 38.0967 3.16406ZM38.0967 13.2009C39.0915 13.2009 39.8731 12.8569 40.4416 12.1691C41.0259 11.4655 41.3179 10.59 41.3179 9.54258C41.3179 8.49512 41.0259 7.62745 40.4416 6.93958C39.8731 6.23607 39.0915 5.88431 38.0967 5.88431C37.102 5.88431 36.3124 6.23607 35.7281 6.93958C35.1597 7.62745 34.8755 8.49512 34.8755 9.54258C34.8755 10.59 35.1597 11.4655 35.7281 12.1691C36.3124 12.8569 37.102 13.2009 38.0967 13.2009Z" fill="white"/>
<path d="M58.6199 3.16406C59.8358 3.16406 60.8227 3.54709 61.5806 4.31313C62.3543 5.07918 62.7412 6.32205 62.7412 8.04173V15.7335H59.7095V8.51077C59.7095 7.57276 59.5516 6.9005 59.2357 6.49402C58.9358 6.08755 58.4226 5.88431 57.6962 5.88431C57.0172 5.88431 56.4566 6.22043 56.0145 6.89268C55.5724 7.54929 55.3513 8.41696 55.3513 9.49565V15.7335H52.3196V8.79219C52.3196 7.76038 52.2012 7.01774 51.9643 6.56437C51.7274 6.111 51.2459 5.88431 50.5195 5.88431C50.03 5.88431 49.5879 6.0641 49.1931 6.42368C48.8141 6.76761 48.5141 7.26005 48.2931 7.90105C48.072 8.52641 47.9614 9.22994 47.9614 10.0116V15.7335H44.9297V3.35166H47.9614V4.05518C47.9614 4.33658 47.9299 4.57109 47.8667 4.75869C47.8035 4.9463 47.7009 5.20425 47.5588 5.53256C47.4956 5.65762 47.464 5.75924 47.464 5.83741C47.464 5.93122 47.5193 6.00156 47.6298 6.04847L47.7246 6.07191C47.8193 6.07191 47.8904 6.03283 47.9378 5.95466C47.9851 5.86086 48.0088 5.80614 48.0088 5.79051C48.3404 4.96193 48.7983 4.32095 49.3826 3.86758C49.9669 3.39857 50.6616 3.16406 51.4669 3.16406C52.2564 3.16406 52.9117 3.39075 53.4328 3.84412C53.9539 4.28187 54.3013 4.86813 54.475 5.60291C54.5223 5.75924 54.6408 5.83741 54.8303 5.83741C54.9882 5.83741 55.0987 5.76706 55.1618 5.62636C55.5092 4.84467 55.983 4.24278 56.583 3.82067C57.1988 3.38294 57.8778 3.16406 58.6199 3.16406Z" fill="white"/>
<path d="M71.1226 3.16406C72.512 3.16406 73.6099 3.60962 74.4154 4.50074C75.2202 5.39185 75.623 6.69726 75.623 8.41696V15.7335H72.5911V9.44878C72.5911 8.10432 72.41 7.17406 72.0463 6.65817C71.6834 6.14227 71.0912 5.88431 70.2703 5.88431C69.6858 5.88431 69.1332 6.08755 68.6121 6.49402C68.1069 6.9005 67.6962 7.47113 67.3805 8.20588C67.0646 8.94069 66.9067 9.76925 66.9067 10.6917V15.7335H63.875V3.35166H66.9067V4.12553C66.9067 4.4851 66.8752 4.78996 66.812 5.0401C66.7488 5.29024 66.6541 5.54819 66.5278 5.81396C66.4489 6.00156 66.4094 6.12663 66.4094 6.18917C66.4094 6.32987 66.4725 6.40804 66.5989 6.42368H66.6699C66.7804 6.42368 66.8752 6.32987 66.9541 6.14227C67.3015 5.37622 67.8384 4.68834 68.5647 4.07863C69.2911 3.46892 70.1437 3.16406 71.1226 3.16406Z" fill="white"/>
<path d="M80.5625 12.3332C80.5625 11.0512 80.973 10.1054 81.7946 9.49565C82.6316 8.87035 83.7364 8.51859 85.1104 8.44043L86.318 8.39349C87.3921 8.36227 88.1577 8.29186 88.6157 8.18248C89.0737 8.07302 89.2947 7.80725 89.2793 7.38515C89.2632 6.8536 89.0814 6.42368 88.7339 6.09537C88.3871 5.76706 87.7319 5.60291 86.7683 5.60291C85.7894 5.60291 85.0943 5.77488 84.6839 6.11882C84.2734 6.44712 84.021 6.9005 83.9259 7.47895H80.9415C81.1471 6.00938 81.8023 4.92284 82.9078 4.21933C84.0126 3.51582 85.3314 3.16406 86.8634 3.16406C88.5367 3.16406 89.8632 3.57054 90.8421 4.38349C91.8211 5.19644 92.3106 6.69726 92.3106 8.886V15.7335H89.2793V14.8658C89.2793 14.3968 89.3975 13.9434 89.6345 13.5057C89.6975 13.3494 89.7289 13.2321 89.7289 13.1539C89.7289 13.0601 89.6898 12.9976 89.6108 12.9663L89.5157 12.9429C89.4213 12.9429 89.35 12.9898 89.3024 13.0836C89.2556 13.1618 89.2318 13.2086 89.2318 13.2243C88.4892 15.0221 87.0529 15.9211 84.9209 15.9211C84.1468 15.9211 83.421 15.7648 82.7421 15.4521C82.0785 15.1394 81.5498 14.7095 81.1548 14.1623C80.7604 13.6152 80.5625 13.0054 80.5625 12.3332ZM89.2793 9.35497C88.9633 9.69891 88.5444 9.94121 88.0235 10.082C87.5186 10.207 86.7208 10.3243 85.6313 10.4337C84.9524 10.5119 84.4391 10.6917 84.0916 10.973C83.7602 11.2388 83.5944 11.6375 83.5944 12.1691C83.5944 12.6224 83.7679 12.9898 84.1154 13.2712C84.479 13.5526 84.9447 13.6933 85.5132 13.6933C85.7181 13.6933 85.8761 13.6855 85.9866 13.6698C86.9187 13.5448 87.692 13.1461 88.3081 12.4739C88.9395 11.8017 89.2632 10.762 89.2793 9.35497Z" fill="white"/>
<path d="M79.9554 1.9373C79.8113 1.99346 79.6547 2.02431 79.4904 2.02431C78.7897 2.02431 78.2212 1.46186 78.2212 0.768039C78.2212 0.620698 78.2471 0.479281 78.294 0.347917C78.2842 0.347743 78.2744 0.347656 78.2639 0.347656C77.329 0.347656 76.5703 1.09832 76.5703 2.02431C76.5703 2.9503 77.329 3.70097 78.2639 3.70097C79.1995 3.70097 79.9575 2.9503 79.9575 2.02431C79.9575 1.99513 79.9568 1.96612 79.9554 1.9373Z" fill="white"/>
</g>
<defs>
<linearGradient id="paint0_linear_2643_49254" x1="15.9147" y1="1.38282" x2="6.80365" y2="14.2542" gradientUnits="userSpaceOnUse">
<stop stop-color="#4B1BF9"/>
<stop offset="1" stop-color="#3ECCEE"/>
</linearGradient>
<linearGradient id="paint1_linear_2643_49254" x1="16.7807" y1="7.14062" x2="7.67226" y2="20.0103" gradientUnits="userSpaceOnUse">
<stop stop-color="#F20A49"/>
<stop offset="0.52" stop-color="#C119E7"/>
<stop offset="1" stop-color="#4675F3"/>
</linearGradient>
<clipPath id="clip0_2643_49254">
<rect width="93" height="18" fill="white"/>
</clipPath>
</defs>
</svg>
