<svg width="24" height="24" viewBox="0 0 24 24" fill="none" xmlns="http://www.w3.org/2000/svg">
<path d="M15.2453 9.21294C15.3153 8.92902 15.6811 8.92902 15.755 9.21294C16.5018 12.1687 18.8314 14.4945 21.7872 15.2452C22.071 15.3153 22.0711 15.681 21.7872 15.7549C18.8314 16.5017 16.5057 18.8313 15.755 21.7872C15.6849 22.0709 15.3192 22.0709 15.2453 21.7872C14.4985 18.8313 12.1688 16.5056 9.21303 15.7549C8.92911 15.681 8.92911 15.3152 9.21303 15.2452C12.1688 14.4984 14.4946 12.1688 15.2453 9.21294ZM6.32338 5.14751C6.37598 4.95082 6.62834 4.95079 6.67689 5.14751C7.19218 7.19346 8.8027 8.80469 10.8517 9.32036C11.049 9.37273 11.049 9.62652 10.8517 9.67486C8.80673 10.1945 7.19627 11.8057 6.67689 13.8516C6.62456 14.049 6.37169 14.049 6.32338 13.8516C5.80399 11.8056 4.19273 10.1944 2.1476 9.67486C1.95086 9.62628 1.95075 9.37274 2.1476 9.32427C4.19278 8.80469 5.80403 7.19361 6.32338 5.14751ZM12.4015 2.08306C12.4291 1.97248 12.5711 1.97248 12.5988 2.08306C12.8871 3.22041 13.7798 4.11313 14.9171 4.40142C15.0276 4.42911 15.0277 4.57104 14.9171 4.59869C13.7797 4.887 12.8871 5.7796 12.5988 6.91704C12.5711 7.02752 12.4292 7.02749 12.4015 6.91704C12.1132 5.77966 11.2205 4.88704 10.0831 4.59869C9.97256 4.57104 9.97256 4.42907 10.0831 4.40142C11.2205 4.1131 12.1132 3.2204 12.4015 2.08306Z" fill="#068AF5"/>
</svg>
