<svg width="16" height="16" viewBox="0 0 16 16" fill="none" xmlns="http://www.w3.org/2000/svg">
<g clip-path="url(#clip0_719_12022)">
<path d="M8.00029 4.88889C7.68199 4.88889 7.37672 5.02936 7.15164 5.27941C6.92656 5.52946 6.80012 5.8686 6.80012 6.22222V6.31733C6.80012 6.43521 6.75797 6.54825 6.68294 6.6316C6.60792 6.71495 6.50616 6.76178 6.40006 6.76178C6.29396 6.76178 6.1922 6.71495 6.11717 6.6316C6.04215 6.54825 6 6.43521 6 6.31733V6.22222C6 5.63285 6.21074 5.06762 6.58587 4.65087C6.961 4.23413 7.46978 4 8.00029 4H8.09311C8.48269 4.00013 8.86289 4.13279 9.18259 4.38012C9.50229 4.62746 9.74616 4.97762 9.88139 5.38351C10.0166 5.78941 10.0367 6.23157 9.93904 6.65055C9.84134 7.06952 9.63051 7.44522 9.33489 7.72711L8.718 8.31467C8.61852 8.40964 8.53864 8.52733 8.48383 8.65971C8.42901 8.7921 8.40054 8.93606 8.40035 9.08178V9.55556C8.40035 9.67343 8.3582 9.78648 8.28318 9.86983C8.20815 9.95318 8.10639 10 8.00029 10C7.89419 10 7.79243 9.95318 7.71741 9.86983C7.64238 9.78648 7.60023 9.67343 7.60023 9.55556V9.08178C7.60023 8.52711 7.81867 8.00089 8.19712 7.64L8.81321 7.05333C8.98502 6.8898 9.10762 6.67172 9.16451 6.42844C9.2214 6.18517 9.20985 5.92837 9.13141 5.69261C9.05297 5.45685 8.91141 5.25343 8.72578 5.10974C8.54015 4.96605 8.31935 4.88898 8.09311 4.88889H8.00029ZM8.00029 12C8.15945 12 8.31208 11.9298 8.42462 11.8047C8.53716 11.6797 8.60038 11.5101 8.60038 11.3333C8.60038 11.1565 8.53716 10.987 8.42462 10.8619C8.31208 10.7369 8.15945 10.6667 8.00029 10.6667C7.84114 10.6667 7.6885 10.7369 7.57597 10.8619C7.46343 10.987 7.4002 11.1565 7.4002 11.3333C7.4002 11.5101 7.46343 11.6797 7.57597 11.8047C7.6885 11.9298 7.84114 12 8.00029 12Z" fill="#868C98"/>
<path d="M0.666687 8.00002C0.666687 6.0551 1.4393 4.18984 2.81457 2.81457C4.18984 1.4393 6.0551 0.666687 8.00002 0.666687C9.94494 0.666687 11.8102 1.4393 13.1855 2.81457C14.5607 4.18984 15.3334 6.0551 15.3334 8.00002C15.3334 9.94494 14.5607 11.8102 13.1855 13.1855C11.8102 14.5607 9.94494 15.3334 8.00002 15.3334C6.0551 15.3334 4.18984 14.5607 2.81457 13.1855C1.4393 11.8102 0.666687 9.94494 0.666687 8.00002ZM8.00002 1.52943C6.28391 1.52943 4.63809 2.21115 3.42462 3.42462C2.21115 4.63809 1.52943 6.28391 1.52943 8.00002C1.52943 9.71613 2.21115 11.3619 3.42462 12.5754C4.63809 13.7889 6.28391 14.4706 8.00002 14.4706C9.71613 14.4706 11.3619 13.7889 12.5754 12.5754C13.7889 11.3619 14.4706 9.71613 14.4706 8.00002C14.4706 6.28391 13.7889 4.63809 12.5754 3.42462C11.3619 2.21115 9.71613 1.52943 8.00002 1.52943Z" fill="#868C98"/>
</g>
<defs>
<clipPath id="clip0_719_12022">
<rect width="16" height="16" fill="white"/>
</clipPath>
</defs>
</svg>
