<svg width="17" height="16" viewBox="0 0 17 16" fill="none" xmlns="http://www.w3.org/2000/svg">
<path d="M11.5433 1.33331H5.95659C3.52992 1.33331 2.08325 2.77998 2.08325 5.20665V10.7866C2.08325 13.22 3.52992 14.6666 5.95659 14.6666H11.5366C13.9633 14.6666 15.4099 13.22 15.4099 10.7933V5.20665C15.4166 2.77998 13.9699 1.33331 11.5433 1.33331ZM12.0033 7.68665C12.0033 7.94665 11.7966 8.15331 11.5366 8.15331C11.2766 8.15331 11.0699 7.94665 11.0699 7.68665V7.56665L9.25659 9.37998C9.15659 9.47998 9.02325 9.52665 8.88325 9.51331C8.74325 9.49998 8.61659 9.42665 8.54325 9.30665L7.86325 8.29331L6.27659 9.87998C6.18325 9.97331 6.06992 10.0133 5.94992 10.0133C5.82992 10.0133 5.70992 9.96665 5.62325 9.87998C5.44325 9.69998 5.44325 9.40665 5.62325 9.21998L7.60992 7.23331C7.70992 7.13331 7.84325 7.08665 7.98325 7.09998C8.12325 7.11331 8.24992 7.18665 8.32325 7.30665L9.00325 8.31998L10.4099 6.91331H10.2899C10.0299 6.91331 9.82325 6.70665 9.82325 6.44665C9.82325 6.18665 10.0299 5.97998 10.2899 5.97998H11.5299C11.5899 5.97998 11.6499 5.99331 11.7099 6.01331C11.8233 6.05998 11.9166 6.15331 11.9633 6.26665C11.9899 6.32665 11.9966 6.38665 11.9966 6.44665V7.68665H12.0033Z" fill="white"/>
</svg>
